<svg width="46" height="46" viewBox="0 0 46 46" fill="none" xmlns="http://www.w3.org/2000/svg">
<path d="M23 1C10.8494 1 1 10.8494 1 23C1 35.1506 10.8494 45 23 45C35.1506 45 45 35.1506 45 23C45 10.8494 35.1506 1 23 1Z" stroke="#F99723" stroke-width="1.5" stroke-linecap="round" stroke-linejoin="round"/>
<path d="M5.99609 36.9612C5.99609 36.9612 10.8999 30.7 22.9999 30.7C35.0999 30.7 40.0059 36.9612 40.0059 36.9612M22.9999 23C24.7503 23 26.4291 22.3047 27.6668 21.067C28.9045 19.8292 29.5999 18.1505 29.5999 16.4C29.5999 14.6496 28.9045 12.9709 27.6668 11.7331C26.4291 10.4954 24.7503 9.80005 22.9999 9.80005C21.2495 9.80005 19.5707 10.4954 18.333 11.7331C17.0952 12.9709 16.3999 14.6496 16.3999 16.4C16.3999 18.1505 17.0952 19.8292 18.333 21.067C19.5707 22.3047 21.2495 23 22.9999 23Z" stroke="#F99723" stroke-width="1.5" stroke-linecap="round" stroke-linejoin="round"/>
</svg>
