<svg width="1028" height="618" viewBox="0 0 1028 618" fill="none" xmlns="http://www.w3.org/2000/svg">
<path opacity="0.8" d="M999.507 0.924919C997.383 -0.308306 993.939 -0.308306 991.815 0.924919C990.221 1.84984 989.827 3.20296 990.632 4.33342L871.504 73.0857V159.874L842.48 176.625V271.018L743.073 328.398L727.584 319.457L804.239 275.215V223.471L803.93 223.299L716.773 172.994V155.438L766.066 126.988C768.19 127.879 771.171 127.776 773.09 126.68C775.215 125.446 775.215 123.46 773.09 122.243C770.966 121.01 767.522 121.01 765.397 122.243C763.479 123.357 763.307 125.07 764.849 126.303L715.557 154.753V173.713L715.865 173.885L803.022 224.19V274.53L745.112 307.964V286.399L771.668 271.07C773.793 271.96 776.774 271.858 778.693 270.761C780.817 269.528 780.817 267.541 778.693 266.325C776.568 265.092 773.125 265.092 771 266.325C769.081 267.439 768.91 269.151 770.452 270.385L743.895 285.714V308.683L726.368 318.789L705.654 306.833V269.288L744.718 246.731V220.782L744.409 220.61L662.152 173.131C663.694 171.898 663.523 170.185 661.604 169.072C659.479 167.839 656.035 167.839 653.911 169.072C651.786 170.305 651.786 172.292 653.911 173.508C655.83 174.621 658.811 174.707 660.936 173.816L743.484 221.467V246.011L705.636 267.867V241.986L705.328 241.815L655.007 212.766C656.549 211.532 656.378 209.82 654.459 208.706C652.335 207.473 648.891 207.473 646.766 208.706C644.642 209.939 644.642 211.926 646.766 213.142C648.685 214.256 651.666 214.341 653.791 213.451L704.42 242.671V306.097L689.874 297.704L665.904 311.544L644.196 299.006V268.552L643.888 268.381L586.491 235.255V206.548C587.673 206.48 588.821 206.188 589.729 205.657C591.854 204.424 591.854 202.437 589.729 201.221C587.605 199.988 584.161 199.988 582.036 201.221C579.912 202.454 579.912 204.441 582.036 205.657C582.945 206.188 584.093 206.462 585.275 206.548V235.957L585.583 236.128L642.98 269.254V298.303L549.569 244.384V187.228L600.232 157.99H646.732L646.869 157.904L726.659 111.864C728.784 112.754 731.765 112.652 733.684 111.555C735.808 110.322 735.808 108.335 733.684 107.119C731.559 105.886 728.115 105.886 725.991 107.119C724.072 108.233 723.901 109.945 725.443 111.179L646.406 156.791H602.34L748.915 72.1951C751.04 73.0857 754.021 72.983 755.94 71.8868C758.064 70.6535 758.064 68.6667 755.94 67.4506C753.815 66.2173 750.372 66.2173 748.247 67.4506C746.328 68.5639 746.157 70.2767 747.699 71.5099L548.352 186.56V245.121L548.661 245.292L664.705 312.263L641.352 325.743L443.222 211.395V143.157L442.914 142.986L375.528 104.105C377.07 102.872 376.899 101.159 374.98 100.045C372.856 98.8122 369.412 98.8122 367.287 100.045C365.163 101.279 365.163 103.265 367.287 104.482C369.206 105.595 372.187 105.681 374.312 104.79L441.989 143.859V212.098L442.297 212.269L640.118 326.445L617.879 339.274L421.943 226.177H305.093L232.071 184.025V119.246C232.842 119.092 233.579 118.852 234.178 118.51C236.303 117.276 236.303 115.289 234.178 114.073C232.054 112.84 228.61 112.84 226.486 114.073C224.361 115.307 224.361 117.293 226.486 118.51C227.685 119.195 229.295 119.486 230.855 119.4V184.727L231.163 184.898L304.785 227.393H421.634L587.039 322.865H553.766L497.312 290.288H453.828L453.691 290.373L393.381 325.178C391.257 324.287 388.276 324.39 386.357 325.486C384.232 326.719 384.232 328.706 386.357 329.922C388.481 331.155 391.925 331.155 394.05 329.922C395.969 328.809 396.14 327.096 394.598 325.863L454.153 291.486H496.987L553.441 324.064H589.147L616.68 339.959L557.33 374.215L540.454 364.469V338.897L497.586 314.147C499.128 312.914 498.957 311.201 497.038 310.088C494.914 308.854 491.47 308.854 489.345 310.088C487.221 311.321 487.221 313.308 489.345 314.524C491.264 315.637 494.245 315.723 496.37 314.832L539.237 339.582V363.75L493.509 337.356H471.852L471.715 337.441L445.895 352.343C443.771 351.452 440.789 351.555 438.87 352.651C436.746 353.884 436.746 355.871 438.87 357.087C440.995 358.32 444.439 358.32 446.563 357.087C448.482 355.974 448.654 354.261 447.111 353.028L472.178 338.572H493.166L556.097 374.883L544.669 381.478L581.146 402.528L564.064 412.394H538.227L519.74 401.723C521.213 400.507 521.008 398.811 519.123 397.715C516.998 396.482 513.555 396.482 511.43 397.715C509.306 398.948 509.306 400.935 511.43 402.151C513.366 403.265 516.399 403.35 518.54 402.425L537.901 413.593H561.956L518.386 438.737L415.895 379.576H342.136L341.999 379.662L300.467 403.624C298.343 402.734 295.362 402.836 293.443 403.933C291.318 405.166 291.318 407.153 293.443 408.369C295.567 409.602 299.011 409.602 301.135 408.369C303.054 407.256 303.226 405.543 301.684 404.309L342.461 380.775H415.552L494.605 426.405H460.767L427.699 407.324C429.241 406.091 429.07 404.378 427.151 403.265C425.027 402.031 421.583 402.031 419.458 403.265C417.334 404.498 417.334 406.485 419.458 407.701C421.377 408.814 424.358 408.9 426.483 408.009L460.441 427.604H496.713L517.153 439.405L465.119 469.431H298.823L169.62 394.855C171.162 393.622 170.991 391.909 169.072 390.795C166.947 389.562 163.503 389.562 161.379 390.795C159.254 392.029 159.254 394.015 161.379 395.232C163.298 396.345 166.279 396.431 168.404 395.54L298.497 470.63H463.011L442.366 482.551H319.263L319.125 482.636L258.422 517.681C256.298 516.79 253.316 516.893 251.397 517.989C249.273 519.222 249.273 521.209 251.397 522.425C253.522 523.658 256.966 523.658 259.09 522.425C261.009 521.312 261.181 519.599 259.639 518.366L319.605 483.767H442.708L442.845 483.681L582.362 403.162L597.851 412.103L451.172 496.767H343.9L343.763 496.853L214.201 571.634H34.695L0 551.714V553.119L34.3695 572.953H214.526L214.664 572.867L295.978 525.936V553.718L242.385 584.652C240.261 583.761 237.28 583.864 235.361 584.96C233.236 586.193 233.236 588.18 235.361 589.396C237.485 590.629 240.929 590.629 243.053 589.396C244.972 588.283 245.144 586.57 243.602 585.337L297.195 554.403V525.388H296.921L344.243 498.069H451.515L451.652 497.983L599.084 412.891L616.68 423.048L330.622 588.146V617.983H331.838V588.848L617.897 423.75L639.639 436.305L492.086 521.466V536.693L465.924 551.8V586.827L415.192 616.116C413.068 615.225 410.086 615.328 408.167 616.424C407.396 616.87 406.9 617.418 406.694 618H417.299C417.145 617.572 416.854 617.178 416.409 616.818L467.14 587.529V552.502L492.086 538.097V594.175L506.804 602.67L480.282 617.983H482.715L508.021 603.373L533.326 617.983H535.759L493.286 593.473V522.168L640.838 437.007L660.627 448.432L556.199 508.705C554.075 507.815 551.094 507.918 549.175 509.014C547.05 510.247 547.05 512.234 549.175 513.45C551.299 514.683 554.743 514.683 556.868 513.45C558.787 512.337 558.958 510.624 557.416 509.391L661.844 449.117L680.947 460.147L556.028 532.239H522.087C521.881 531.657 521.385 531.092 520.596 530.629C518.472 529.396 515.028 529.396 512.904 530.629C510.779 531.863 510.779 533.85 512.904 535.066C515.028 536.299 518.472 536.299 520.596 535.066C521.385 534.603 521.881 534.038 522.087 533.456H556.354L556.491 533.37L682.147 460.849L689.857 465.303L695.785 461.877L725.717 479.142V503.19L700.993 517.458V517.389H662.186L662.049 517.475L619.473 542.054C617.348 541.163 614.367 541.266 612.448 542.362C610.324 543.595 610.324 545.582 612.448 546.798C614.573 548.032 618.017 548.032 620.141 546.798C622.06 545.685 622.231 543.972 620.689 542.739L662.512 518.605H698.989L626.292 560.552C624.15 559.593 621.083 559.662 619.113 560.792C616.989 562.025 616.989 564.012 619.113 565.228C621.238 566.461 624.681 566.461 626.806 565.228C628.673 564.149 628.896 562.488 627.474 561.255L718.144 508.928V520.49L664.208 551.629V573.604L620.295 598.954C618.171 598.063 615.19 598.166 613.271 599.262C611.146 600.495 611.146 602.482 613.271 603.698C615.395 604.931 618.839 604.931 620.963 603.698C622.882 602.585 623.054 600.872 621.512 599.639L665.424 574.289V552.314L719.36 521.175V508.209L726.916 503.841V478.389L696.984 461.106L716.653 449.75L778.23 485.291V525.697L736.408 549.83C734.266 548.871 731.199 548.939 729.229 550.07C727.104 551.303 727.104 553.29 729.229 554.506C731.354 555.739 734.797 555.739 736.922 554.506C738.789 553.427 739.012 551.766 737.59 550.532L778.213 527.084V559.73L746.122 578.263V617.897H747.339V578.965L778.213 561.135V617.88H779.43V484.555L717.852 449.014L739.937 436.271L820.43 482.722V593.37L859.117 615.705V617.88H860.333V615.003L821.646 592.667V482.02L741.154 435.568L757.516 426.114L866.141 488.803V583.196L926.194 617.863H928.627L867.358 582.493V488.1L758.733 425.411L785.255 410.099L965.995 514.409V561.374L1027.93 597.121V595.716L967.211 560.672V513.707L865.559 455.026H945.949L1027.93 502.351V500.946L946.274 453.81H863.434L786.471 409.397L817.311 391.6L883.463 429.779H989.69L1027.93 451.84V450.436L1019.55 445.605H1027.93V444.389H1017.45L990.033 428.563H883.806L865.285 417.875H910.448L910.585 417.789L933.236 404.721H1027.62L1027.93 404.892V403.487H935.343L960.837 388.774C962.962 389.665 965.943 389.562 967.862 388.466C969.987 387.233 969.987 385.246 967.862 384.03C965.738 382.797 962.294 382.797 960.169 384.03C958.25 385.143 958.079 386.856 959.621 388.089L910.106 416.676H863.16L818.511 390.915L835.01 381.392L824.388 375.26H855.245L895.577 398.537C894.035 399.771 894.206 401.483 896.125 402.597C898.249 403.83 901.693 403.83 903.818 402.597C905.942 401.363 905.942 399.377 903.818 398.16C901.899 397.047 898.918 396.962 896.793 397.852L855.57 374.061H822.28L799.698 361.027L813.576 353.011H838.197L859.854 340.507H876.01L912.504 361.575C910.86 362.808 910.997 364.572 912.95 365.703C915.074 366.936 918.518 366.936 920.643 365.703C922.767 364.469 922.767 362.483 920.643 361.266C918.758 360.187 915.862 360.068 913.738 360.89L876.336 339.308H859.528L837.871 351.812H815.684L860.076 326.188H884.046L934.007 355.015H1027.91V353.799H934.332L884.371 324.972H859.751L859.614 325.058L798.482 360.342L782.445 351.092L851.527 311.218H900.254L940.449 334.41H1027.93V333.193H940.791L902.704 311.218H1027.93V310.002H851.218L851.081 310.088L781.263 350.39L763.033 339.873L859.357 284.276H1027.93V283.059H905.086L1027.93 212.149V210.745L902.653 283.059H860.248L951.568 230.356V218.743L995.275 193.531C997.4 194.421 1000.38 194.319 1002.3 193.222C1004.42 191.989 1004.42 190.002 1002.3 188.786C1000.18 187.553 996.732 187.553 994.607 188.786C992.688 189.9 992.517 191.612 994.059 192.846L970.261 206.582V174.741L1027.95 141.444V140.04L969.044 174.039V207.285L950.352 218.075V229.688L858.277 282.837L858.586 283.368L761.817 339.223L744.221 329.066L843.628 271.686V177.293L1027.93 70.9105V69.506L872.652 159.137V73.788L991.557 5.18982C991.557 5.18982 991.712 5.30972 991.797 5.3611C993.922 6.59433 997.366 6.59433 999.49 5.3611C1001.61 4.12788 1001.61 2.14102 999.49 0.924919H999.507ZM832.663 381.512L689.874 463.932L547.102 381.529L689.891 299.109L832.663 381.512Z" fill="url(#paint0_radial_646_4967)"/>
<path opacity="0.1" d="M1028 148.604L1002.63 163.248V210.453L777.151 340.593L760.018 330.71L876.319 263.585V251.578L896.93 239.674V212.08L936.919 189.009C938.598 189.711 940.946 189.625 942.453 188.752C944.132 187.793 944.132 186.217 942.453 185.258C940.774 184.299 938.067 184.299 936.388 185.258C934.88 186.131 934.743 187.484 935.96 188.461L895.971 211.549V239.143L876.319 250.482V206.291L876.079 206.154L864.719 199.594L932.893 160.251V115.992L981.329 88.0385C983.008 88.7407 985.355 88.6551 986.863 87.7816C988.542 86.8224 988.542 85.2466 986.863 84.2874C985.184 83.3282 982.477 83.3282 980.798 84.2874C979.29 85.1609 979.153 86.5141 980.369 87.4904L931.933 115.443V159.703L863.76 199.046L752.924 135.072V85.572C753.85 85.5035 754.758 85.2808 755.477 84.8698C757.156 83.9106 757.156 82.3348 755.477 81.3756C753.798 80.4165 751.091 80.4165 749.412 81.3756C747.733 82.3348 747.733 83.9106 749.412 84.8698C750.132 85.2808 751.04 85.5035 751.965 85.572V135.62L752.205 135.757L818.871 174.244H770.28L730.994 151.567C732.21 150.608 732.073 149.237 730.565 148.364C728.886 147.405 726.179 147.405 724.5 148.364C722.821 149.323 722.821 150.899 724.5 151.858C726.008 152.731 728.355 152.8 730.034 152.115L770.023 175.204H820.515L875.376 206.856V263.054L759.075 330.179L743.484 321.187L825.792 273.673C827.472 274.375 829.819 274.29 831.326 273.416C833.006 272.457 833.006 270.881 831.326 269.922C829.647 268.963 826.94 268.963 825.261 269.922C823.754 270.796 823.617 272.149 824.833 273.125L742.524 320.638L727.464 311.955L825.912 255.123H852.675C852.829 255.586 853.223 256.031 853.857 256.391C855.536 257.35 858.243 257.35 859.922 256.391C861.601 255.432 861.601 253.856 859.922 252.897C858.243 251.938 855.536 251.938 853.857 252.897C853.24 253.256 852.846 253.702 852.675 254.164H825.655L825.535 254.233L726.488 311.406L720.405 307.895L720.165 308.032L715.728 310.601L692.135 296.985V278.041L711.633 266.788V266.839H742.216L775.883 247.399C777.562 248.101 779.909 248.015 781.417 247.142C783.096 246.182 783.096 244.607 781.417 243.648C779.738 242.688 777.031 242.688 775.352 243.648C773.844 244.521 773.707 245.874 774.924 246.85L741.959 265.88H713.209L770.503 232.805C772.182 233.559 774.615 233.508 776.157 232.617C777.836 231.658 777.836 230.082 776.157 229.123C774.478 228.164 771.771 228.164 770.092 229.123C768.619 229.979 768.447 231.281 769.561 232.257L698.098 273.502V264.39L740.623 239.845V222.511L775.232 202.54C776.911 203.242 779.258 203.157 780.766 202.283C782.445 201.324 782.445 199.748 780.766 198.789C779.087 197.83 776.38 197.83 774.701 198.789C773.193 199.662 773.056 201.016 774.273 201.992L739.663 221.963V239.297L697.138 263.842V274.067L691.176 277.51V297.567L714.768 311.184L699.263 320.125L650.724 292.103V260.262L683.689 241.232C685.368 241.986 687.801 241.935 689.343 241.044C691.022 240.085 691.022 238.509 689.343 237.55C687.664 236.591 684.956 236.591 683.277 237.55C681.804 238.406 681.633 239.708 682.746 240.684L650.724 259.166V233.439L676.03 218.846V170.442C676.955 170.373 677.863 170.151 678.583 169.74C680.262 168.78 680.262 167.205 678.583 166.246C676.904 165.286 674.197 165.286 672.518 166.246C670.839 167.205 670.839 168.78 672.518 169.74C673.237 170.151 674.145 170.373 675.071 170.442V218.281L650.724 232.326V146.993H649.765V292.685L698.303 320.707L680.896 330.744L617.451 294.124V206.925L586.954 189.317V156.517L560.02 140.982C561.237 140.022 561.1 138.652 559.592 137.779C557.913 136.819 555.206 136.819 553.527 137.779C551.848 138.738 551.848 140.314 553.527 141.273C555.034 142.146 557.382 142.215 559.061 141.53L585.994 157.065V189.865L616.492 207.473V294.672L679.936 331.292L667.035 338.743L581.42 289.328V214.924L581.18 214.787L505.399 171.041C506.616 170.082 506.479 168.712 504.971 167.838C503.292 166.879 500.585 166.879 498.906 167.838C497.227 168.798 497.227 170.373 498.906 171.333C500.413 172.206 502.761 172.275 504.44 171.589L580.46 215.472V289.876L580.7 290.013L666.076 339.291L645.173 351.366L502.726 269.151V232.12L502.486 231.983L383.238 163.145C384.455 162.186 384.318 160.816 382.81 159.942C381.131 158.983 378.424 158.983 376.745 159.942C375.066 160.902 375.066 162.477 376.745 163.436C378.253 164.31 380.6 164.379 382.279 163.693L501.784 232.668V269.699L502.024 269.836L581.899 315.945H518.54L445.193 273.605C446.409 272.645 446.272 271.275 444.764 270.402C443.085 269.442 440.378 269.442 438.699 270.402C437.02 271.361 437.02 272.937 438.699 273.896C440.207 274.769 442.554 274.838 444.233 274.153L518.283 316.905H583.561L644.231 351.914L619.935 365.942L567.799 335.848H484.068L388.841 280.884H336.019L314.482 268.449C315.699 267.49 315.562 266.12 314.054 265.246C312.375 264.287 309.668 264.287 307.989 265.246C306.31 266.205 306.31 267.781 307.989 268.74C309.497 269.614 311.844 269.682 313.523 268.997L335.762 281.826H388.584L460.544 323.362H398.384L368.452 306.08C369.669 305.103 369.532 303.75 368.024 302.877C366.345 301.917 363.638 301.917 361.959 302.877C360.28 303.836 360.28 305.412 361.959 306.371C363.467 307.244 365.814 307.313 367.493 306.628L398.127 324.304H462.206L483.811 336.773H567.542L582.139 345.2H546.553L546.433 345.269L528.581 355.58H454.188L433.199 343.47H391.12C390.966 343.008 390.572 342.562 389.955 342.203C388.276 341.244 385.569 341.244 383.889 342.203C382.21 343.162 382.21 344.738 383.889 345.697C385.569 346.656 388.276 346.656 389.955 345.697C390.572 345.337 390.966 344.892 391.137 344.429H432.959L453.948 356.539H526.936L506.838 368.135C505.159 367.432 502.812 367.518 501.304 368.392C499.625 369.351 499.625 370.927 501.304 371.886C502.983 372.845 505.69 372.845 507.369 371.886C508.877 371.012 509.014 369.659 507.798 368.7L546.828 346.177H583.836L619.027 366.49L606.023 373.993L606.743 374.404L614.384 378.823H590.072L558.273 360.479C559.489 359.502 559.352 358.149 557.844 357.276C556.165 356.316 553.458 356.316 551.779 357.276C550.1 358.235 550.1 359.811 551.779 360.77C553.287 361.643 555.634 361.712 557.313 361.027L589.815 379.782H616.063L633.865 390.059L622.917 396.379H603.505L603.385 396.448L586.423 406.228H573.693L544.926 389.631C546.211 388.654 546.108 387.267 544.566 386.376C542.887 385.417 540.18 385.417 538.501 386.376C536.822 387.335 536.822 388.911 538.501 389.87C539.974 390.727 542.27 390.812 543.949 390.162L573.436 407.17H586.68L586.782 407.101L603.744 397.321H621.238L586.251 417.515H567.37L527.998 394.786H409.264L335.608 352.274C336.876 351.298 336.773 349.928 335.231 349.037C333.552 348.078 330.845 348.078 329.166 349.037C327.487 349.996 327.487 351.572 329.166 352.531C330.656 353.387 332.952 353.473 334.631 352.822L408.99 395.745H527.724L567.096 418.474H586.508L586.611 418.406L634.79 390.59L647.434 397.886L592.985 429.316H554.589L522.909 411.024H441.595C441.44 410.561 441.046 410.116 440.412 409.756C438.733 408.797 436.026 408.797 434.347 409.756C432.668 410.715 432.668 412.291 434.347 413.25C436.026 414.209 438.733 414.209 440.412 413.25C441.029 412.891 441.423 412.445 441.577 411.983H522.635L552.653 429.299H438.082L437.979 429.368L328.789 492.382C327.11 491.68 324.762 491.766 323.255 492.639C321.576 493.598 321.576 495.174 323.255 496.133C324.934 497.092 327.641 497.092 329.32 496.133C330.828 495.26 330.965 493.907 329.748 492.947L438.339 430.276H593.242L593.345 430.207L648.377 398.434L662.734 406.724L586.817 450.538H453.142L453.04 450.607L335.985 518.177H199.518L119.968 472.274C121.184 471.315 121.047 469.944 119.539 469.088C117.86 468.129 115.153 468.129 113.474 469.088C111.795 470.047 111.795 471.623 113.474 472.582C114.982 473.456 117.329 473.524 119.008 472.839L199.261 519.154H336.173L336.293 519.085L453.348 451.514H550.717L407.739 534.038V555.756L350.702 588.677C349.023 587.974 346.676 588.06 345.168 588.933C343.489 589.893 343.489 591.468 345.168 592.428C346.847 593.387 349.554 593.387 351.233 592.428C352.741 591.554 352.878 590.201 351.662 589.225L408.699 556.304V534.586L552.653 451.497H586.08L514.103 493.05V502.214L479.665 522.1C477.986 521.397 475.639 521.483 474.131 522.356C472.452 523.316 472.452 524.891 474.131 525.851C475.81 526.81 478.517 526.81 480.196 525.851C481.704 524.977 481.841 523.624 480.624 522.648L499.385 511.823V536.915L391.034 599.45C389.355 598.748 387.008 598.834 385.5 599.707C383.821 600.666 383.821 602.242 385.5 603.201C387.179 604.16 389.886 604.16 391.565 603.201C393.073 602.328 393.21 600.975 391.994 599.998L500.345 537.463V511.257L515.079 502.762V493.598L587.656 451.72L587.416 451.309L663.694 407.29L677.555 415.289L599.204 460.507V534.911L455.096 618.086H457.015L576.331 549.23V616.527L573.607 618.103H575.526L577.273 617.092V548.682L600.146 535.477V461.072L678.497 415.854L690.696 422.893L630.284 457.766V498.548L630.524 498.685L699.211 538.337V552.177L660.353 574.597C658.674 573.895 656.327 573.981 654.819 574.854C653.14 575.813 653.14 577.389 654.819 578.348C656.498 579.307 659.205 579.307 660.884 578.348C662.392 577.475 662.529 576.122 661.312 575.145L700.154 552.725V537.789L699.914 537.652L631.226 498V458.314L676.87 431.971V448.962L655.933 461.038C654.254 460.336 651.906 460.421 650.398 461.295C648.719 462.254 648.719 463.83 650.398 464.789C652.078 465.748 654.785 465.748 656.464 464.789C657.971 463.915 658.109 462.562 656.892 461.603L677.812 449.528V431.423L691.621 423.459L707.949 432.879V462.477L677.161 480.256V500.724L677.401 500.861L742.233 538.286C741.017 539.245 741.154 540.615 742.661 541.489C744.341 542.448 747.048 542.448 748.727 541.489C750.406 540.529 750.406 538.954 748.727 537.994C747.219 537.121 744.872 537.052 743.193 537.738L678.12 500.176V480.821L707.949 463.607V484.007L747.853 507.044C746.636 508.02 746.773 509.373 748.281 510.23C749.96 511.189 752.667 511.189 754.346 510.23C756.026 509.271 756.026 507.695 754.346 506.736C752.839 505.862 750.491 505.794 748.812 506.479L708.909 483.441V433.444L720.371 440.056L720.611 439.919L739.269 429.145L756.385 439.028V463.025L801.874 489.282V511.908C800.949 511.977 800.041 512.199 799.321 512.611C797.642 513.57 797.642 515.146 799.321 516.105C801 517.064 803.708 517.064 805.387 516.105C807.066 515.146 807.066 513.57 805.387 512.611C804.667 512.199 803.759 511.977 802.834 511.908V488.734L757.345 462.477V439.576L830.984 482.071V527.118L791.046 550.173H754.398L754.295 550.241L691.416 586.536C689.737 585.833 687.389 585.919 685.882 586.792C684.203 587.752 684.203 589.327 685.882 590.287C687.561 591.246 690.268 591.246 691.947 590.287C693.455 589.413 693.592 588.06 692.375 587.101L754.672 551.149H789.401L673.888 617.829C672.209 617.126 669.862 617.212 668.354 618.086C668.337 618.086 668.32 618.12 668.303 618.12H675.31L831.978 527.7V481.54L831.738 481.403L740.28 428.614L758.681 417.995L914.834 508.123V561.905L968.17 592.702C966.954 593.661 967.091 595.031 968.599 595.888C970.278 596.847 972.985 596.847 974.664 595.888C976.343 594.928 976.343 593.353 974.664 592.393C973.156 591.52 970.809 591.451 969.13 592.136L915.777 561.34V507.558L915.537 507.421L759.623 417.43L777.151 407.307L931.591 496.442H1023.68L1028 498.942V497.829L1023.94 495.482H931.848L801.48 420.239H827.694L872.19 445.914H906.456L906.576 445.845L954.104 418.406C955.783 419.108 958.13 419.022 959.638 418.149C961.317 417.19 961.317 415.614 959.638 414.655C957.959 413.696 955.252 413.696 953.573 414.655C952.065 415.528 951.928 416.881 953.145 417.858L906.199 444.954H872.446L827.951 419.279H799.818L778.11 406.759L824.884 379.765L838.18 387.438V407.598L871.967 427.107C870.75 428.066 870.887 429.436 872.395 430.293C874.074 431.252 876.781 431.252 878.46 430.293C880.139 429.334 880.139 427.758 878.46 426.799C876.953 425.925 874.605 425.857 872.926 426.542L839.139 407.033V387.986L875.171 408.78H892.236L892.338 408.711L912.693 396.961C914.372 397.664 916.719 397.578 918.227 396.704C919.906 395.745 919.906 394.17 918.227 393.21C916.548 392.251 913.841 392.251 912.162 393.21C910.654 394.084 910.517 395.437 911.733 396.413L891.979 407.821H875.428L825.827 379.2L834.839 373.993L834.119 373.582L806.089 357.395L819.556 349.619H839.91L854.474 358.029C853.309 358.988 853.463 360.324 854.953 361.181C856.632 362.14 859.34 362.14 861.019 361.181C862.698 360.222 862.698 358.646 861.019 357.687C859.494 356.796 857.095 356.745 855.416 357.464L840.15 348.66H821.201L855.536 328.843L936.32 375.466H994.453L994.573 375.397L1027.3 356.505C1027.5 356.59 1027.74 356.625 1027.98 356.693V352.274C1027.55 352.394 1027.14 352.548 1026.78 352.754C1025.28 353.627 1025.14 354.98 1026.36 355.94L994.213 374.489H936.594L874.297 338.52H900.956L927.016 353.559C925.8 354.518 925.937 355.888 927.445 356.762C929.124 357.721 931.831 357.721 933.51 356.762C935.189 355.803 935.189 354.227 933.51 353.268C932.002 352.394 929.655 352.326 927.976 353.011L901.196 337.561H872.618L856.495 328.26L897.513 304.589H1027.97V303.63H899.174L915.451 294.244H1012.48L1012.58 294.176L1027.97 285.303V284.19L1012.22 293.285H915.194L915.074 293.353L805.113 356.813L792.914 349.773L908.512 283.042H993.065L993.168 282.974L1027.97 262.882V261.769L992.791 282.066H908.238L908.135 282.134L791.937 349.208L778.076 341.209L1003.55 211.07V163.865L1027.97 149.768V148.655L1028 148.604ZM832.937 373.89L720.388 438.84L607.856 373.89L720.405 308.94L832.937 373.89Z" fill="#EFCD92"/>
<g opacity="0.67">
<path d="M691.587 561.34L402.394 394.426L691.587 227.513L980.781 394.426L691.587 561.34Z" fill="#C5C5C5"/>
</g>
<g opacity="0.67">
<path d="M691.587 535.442L447.249 394.427L691.587 253.394L935.926 394.427L691.587 535.442Z" fill="#898989"/>
</g>
<g opacity="0.9">
<path d="M691.588 505.366L499.352 394.427L691.588 283.471L883.823 394.427L691.588 505.366Z" fill="#696969"/>
</g>
<path d="M731.147 508.962C729.348 508.962 727.447 508.517 725.939 507.643L496.455 375.192C494.879 374.284 493.971 373.016 493.971 371.715C493.971 370.584 494.639 369.574 495.855 368.871L632.802 289.825C635.235 288.421 639.33 288.575 642.105 290.185L871.606 422.637C873.183 423.544 874.091 424.812 874.091 426.114C874.091 427.244 873.423 428.255 872.206 428.957L735.259 508.003C734.146 508.654 732.672 508.962 731.147 508.962ZM497.277 373.77L726.778 506.222C729.023 507.524 732.535 507.678 734.437 506.582L871.384 427.535C871.863 427.261 872.446 426.782 872.446 426.114C872.446 425.446 871.829 424.658 870.784 424.058L641.283 291.606C639.039 290.305 635.526 290.15 633.607 291.247L496.661 370.293C496.181 370.567 495.598 371.047 495.598 371.715C495.598 372.383 496.215 373.171 497.26 373.77H497.277Z" fill="#F2B030"/>
<path d="M642.02 249.591L671.027 77.5218L668.697 76.5455L672.209 74.5416C672.894 74.1134 673.854 74.1305 674.916 74.7471L906.764 208.569C908.666 209.665 910.105 212.492 909.78 214.461L880.533 387.884C880.379 388.791 879.934 389.391 879.317 389.648L875.89 391.635L875.308 388.432L875.496 388.483L645.053 255.483C643.151 254.387 641.712 251.561 642.037 249.591H642.02Z" fill="#383838"/>
<path d="M905.445 213.279L909.249 211.601C909.677 212.577 909.883 213.605 909.746 214.461L880.499 387.883C880.345 388.791 879.899 389.391 879.282 389.647L875.856 391.634L875.273 388.431L875.462 388.483L863.794 381.751L905.428 213.262L905.445 213.279Z" fill="#383838"/>
<path d="M641.386 257.572L873.234 391.394C875.016 392.422 876.558 391.823 876.867 389.973L906.113 216.55C906.456 214.581 904.999 211.755 903.098 210.658L671.249 76.8363C669.468 75.8086 667.926 76.4081 667.617 78.2579L638.371 251.68C638.028 253.65 639.484 256.476 641.386 257.572Z" fill="#383838"/>
<g opacity="0.51">
<path d="M670.479 80.0566L903.423 214.444L874.005 388.329L641.215 254.027L670.479 80.0566Z" fill="#383838"/>
</g>
<path d="M495.651 339.686L508.295 346.297L635.167 273.074C637.292 271.841 640.993 271.995 643.443 273.417L862.27 399.72C864.36 398.555 873.903 393.965 873.903 393.965L869.277 401.484H869.26C869.072 401.998 868.66 402.511 867.958 402.905L734.335 480.033C732.21 481.267 728.51 481.112 726.06 479.691L502.127 350.442C501.116 349.86 500.499 349.157 500.242 348.438H500.225L495.616 339.686H495.651Z" fill="url(#paint1_linear_646_4967)"/>
<path d="M497.603 341.758L727.104 474.21C729.623 475.666 733.409 475.82 735.585 474.569L872.532 395.523C874.708 394.273 874.434 392.08 871.915 390.624L642.414 258.173C639.896 256.717 636.109 256.563 633.933 257.813L496.986 336.859C494.811 338.11 495.085 340.302 497.603 341.758Z" fill="url(#paint2_linear_646_4967)"/>
<path d="M497.604 340.73L727.105 473.181C729.623 474.637 733.41 474.792 735.586 473.541L872.532 394.495C873.303 394.05 873.749 393.484 873.92 392.885C874.16 393.861 873.732 394.82 872.532 395.523L735.586 474.569C733.41 475.819 729.606 475.665 727.105 474.209L497.604 341.757C495.976 340.815 495.308 339.565 495.616 338.469C495.822 339.274 496.473 340.079 497.604 340.73Z" fill="white"/>
<g opacity="0.15">
<mask id="mask0_646_4967" style="mask-type:luminance" maskUnits="userSpaceOnUse" x="641" y="80" width="263" height="309">
<path d="M903.423 214.444L670.479 80.0566L641.215 254.027L874.005 388.329L903.423 214.444Z" fill="white"/>
</mask>
<g mask="url(#mask0_646_4967)">
<path d="M641.112 256.459L653.756 263.07L780.629 189.848C782.753 188.614 786.454 188.769 788.904 190.19L1007.73 316.493C1009.82 315.328 1019.36 310.738 1019.36 310.738L1014.74 318.257H1014.72C1014.53 318.771 1014.12 319.285 1013.42 319.679L879.796 396.807C877.672 398.04 873.971 397.886 871.521 396.464L647.605 267.215C646.595 266.633 645.978 265.931 645.721 265.211H645.704L641.095 256.459H641.112Z" fill="url(#paint3_linear_646_4967)"/>
<path d="M643.065 258.531L872.566 390.983C875.085 392.439 878.871 392.593 881.047 391.343L1017.99 312.296C1020.17 311.046 1019.9 308.854 1017.38 307.398L787.876 174.946C785.357 173.49 781.571 173.336 779.395 174.586L642.448 253.633C640.272 254.883 640.547 257.075 643.065 258.531Z" fill="url(#paint4_linear_646_4967)"/>
<path d="M1017.38 307.398L787.876 174.946C786.266 174.021 784.107 173.628 782.205 173.799C783.61 173.902 785.032 174.296 786.18 174.946L1015.68 307.398C1018.2 308.854 1018.47 311.047 1016.3 312.297L879.351 391.343C878.58 391.788 877.586 392.045 876.541 392.148C878.203 392.285 879.865 392.028 881.047 391.343L1017.99 312.297C1020.17 311.047 1019.9 308.854 1017.38 307.398Z" fill="white"/>
<g opacity="0.5">
<path d="M763.273 235.734L755.922 231.486C755.34 231.143 754.329 231.178 753.695 231.554L745.523 236.333C744.889 236.71 744.837 237.292 745.437 237.635L752.787 241.883C753.37 242.225 754.38 242.191 755.014 241.814L763.187 237.035C763.821 236.659 763.872 236.076 763.273 235.734Z" fill="#24126A"/>
<path d="M774.632 242.294L767.282 238.046C766.699 237.704 765.688 237.738 765.054 238.115L756.882 242.894C756.248 243.271 756.197 243.853 756.796 244.195L764.146 248.443C764.729 248.786 765.74 248.752 766.374 248.375L774.546 243.596C775.18 243.219 775.232 242.637 774.632 242.294Z" fill="#24126A"/>
<path d="M785.991 248.837L778.641 244.589C778.059 244.247 777.048 244.281 776.414 244.658L768.241 249.437C767.607 249.814 767.556 250.396 768.156 250.738L775.506 254.986C776.088 255.329 777.099 255.295 777.733 254.918L785.906 250.139C786.54 249.762 786.591 249.18 785.991 248.837Z" fill="#24126A"/>
<path d="M777.339 257.572L769.988 253.324C769.406 252.981 768.395 253.016 767.761 253.392L760.891 257.4C760.257 257.777 760.205 258.359 760.805 258.702L768.155 262.95C768.738 263.292 769.749 263.258 770.383 262.881L777.253 258.873C777.887 258.496 777.938 257.914 777.339 257.572Z" fill="#24126A"/>
<path d="M788.698 264.132L781.348 259.884C780.765 259.542 779.754 259.576 779.12 259.953L772.25 263.961C771.616 264.338 771.565 264.92 772.164 265.263L779.515 269.51C780.097 269.853 781.108 269.819 781.742 269.442L788.612 265.434C789.246 265.057 789.298 264.475 788.698 264.132Z" fill="#24126A"/>
<path d="M800.057 270.693L792.707 266.445C792.125 266.102 791.114 266.137 790.48 266.513L783.609 270.521C782.975 270.898 782.924 271.481 783.524 271.823L790.874 276.071C791.456 276.413 792.467 276.379 793.101 276.002L799.972 271.994C800.606 271.618 800.657 271.035 800.057 270.693Z" fill="#24126A"/>
<path d="M811.417 277.236L804.067 272.988C803.484 272.645 802.473 272.68 801.839 273.056L794.969 277.064C794.335 277.441 794.283 278.024 794.883 278.366L802.233 282.614C802.816 282.956 803.827 282.922 804.461 282.545L811.331 278.537C811.965 278.161 812.016 277.578 811.417 277.236Z" fill="#24126A"/>
<path d="M822.776 283.795L815.426 279.547C814.843 279.205 813.833 279.239 813.199 279.616L806.328 283.624C805.694 284.001 805.643 284.583 806.242 284.926L813.593 289.173C814.175 289.516 815.186 289.482 815.82 289.105L822.691 285.097C823.324 284.72 823.376 284.138 822.776 283.795Z" fill="#24126A"/>
<path d="M834.136 290.356L826.785 286.108C826.203 285.765 825.192 285.8 824.558 286.177L817.688 290.184C817.054 290.561 817.002 291.144 817.602 291.486L824.952 295.734C825.535 296.077 826.545 296.042 827.179 295.665L834.05 291.657C834.684 291.281 834.735 290.698 834.136 290.356Z" fill="#24126A"/>
<path d="M845.496 296.915L838.146 292.668C837.563 292.325 836.552 292.359 835.918 292.736L829.048 296.744C828.414 297.121 828.363 297.703 828.962 298.046L836.312 302.294C836.895 302.636 837.906 302.602 838.54 302.225L845.41 298.217C846.044 297.84 846.096 297.258 845.496 296.915Z" fill="#24126A"/>
<path d="M856.855 303.476L849.505 299.228C848.923 298.886 847.912 298.92 847.278 299.297L840.407 303.305C839.773 303.681 839.722 304.264 840.322 304.606L847.672 308.854C848.254 309.197 849.265 309.162 849.899 308.786L856.77 304.778C857.404 304.401 857.455 303.818 856.855 303.476Z" fill="#24126A"/>
<path d="M868.231 310.019L860.881 305.771C860.298 305.429 859.288 305.463 858.654 305.84L851.783 309.848C851.149 310.224 851.098 310.807 851.698 311.149L859.048 315.397C859.63 315.74 860.641 315.705 861.275 315.329L868.146 311.321C868.78 310.944 868.831 310.361 868.231 310.019Z" fill="#24126A"/>
<path d="M879.591 316.578L872.24 312.331C871.658 311.988 870.647 312.022 870.013 312.399L863.143 316.407C862.509 316.784 862.457 317.366 863.057 317.709L870.407 321.957C870.99 322.299 872.001 322.265 872.634 321.888L879.505 317.88C880.139 317.503 880.19 316.921 879.591 316.578Z" fill="#24126A"/>
<path d="M772.61 266.924L765.26 262.676C764.677 262.334 763.667 262.368 763.033 262.745L756.162 266.753C755.528 267.13 755.477 267.712 756.076 268.055L763.427 272.302C764.009 272.645 765.02 272.611 765.654 272.234L772.524 268.226C773.158 267.849 773.21 267.267 772.61 266.924Z" fill="#24126A"/>
<path d="M761.08 260.279L753.73 256.031C753.147 255.688 752.136 255.723 751.502 256.099L744.632 260.107C743.998 260.484 743.947 261.066 744.546 261.409L751.896 265.657C752.479 265.999 753.49 265.965 754.124 265.588L760.994 261.58C761.628 261.204 761.68 260.621 761.08 260.279Z" fill="#24126A"/>
<path d="M749.531 253.616L733.683 244.469C733.1 244.127 732.089 244.161 731.455 244.538L724.585 248.546C723.951 248.923 723.9 249.505 724.499 249.848L740.348 258.994C740.93 259.337 741.941 259.302 742.575 258.925L749.445 254.917C750.079 254.541 750.131 253.958 749.531 253.616Z" fill="#24126A"/>
<path d="M736.133 257.966L723.283 250.549C722.701 250.207 721.69 250.241 721.056 250.618L714.186 254.626C713.552 255.003 713.5 255.585 714.1 255.928L726.95 263.344C727.532 263.687 728.543 263.652 729.177 263.276L736.048 259.268C736.682 258.891 736.733 258.308 736.133 257.966Z" fill="#24126A"/>
<path d="M783.97 273.484L776.619 269.236C776.037 268.893 775.026 268.928 774.392 269.304L767.521 273.312C766.888 273.689 766.836 274.272 767.436 274.614L774.786 278.862C775.369 279.204 776.379 279.17 777.013 278.793L783.884 274.785C784.518 274.409 784.569 273.826 783.97 273.484Z" fill="#24126A"/>
<path d="M795.329 280.044L787.979 275.796C787.396 275.454 786.385 275.488 785.751 275.865L778.881 279.873C778.247 280.25 778.196 280.832 778.795 281.175L786.145 285.422C786.728 285.765 787.739 285.731 788.373 285.354L795.243 281.346C795.877 280.969 795.929 280.387 795.329 280.044Z" fill="#24126A"/>
<path d="M806.688 286.604L799.338 282.356C798.756 282.013 797.745 282.048 797.111 282.425L790.24 286.433C789.606 286.809 789.555 287.392 790.155 287.734L797.505 291.982C798.087 292.325 799.098 292.29 799.732 291.914L806.603 287.906C807.237 287.529 807.288 286.946 806.688 286.604Z" fill="#24126A"/>
<path d="M818.048 293.164L810.697 288.917C810.115 288.574 809.104 288.608 808.47 288.985L801.6 292.993C800.966 293.37 800.914 293.952 801.514 294.295L808.864 298.543C809.447 298.885 810.458 298.851 811.092 298.474L817.962 294.466C818.596 294.089 818.647 293.507 818.048 293.164Z" fill="#24126A"/>
<path d="M829.407 299.707L822.057 295.46C821.474 295.117 820.463 295.151 819.829 295.528L812.959 299.536C812.325 299.913 812.274 300.495 812.873 300.838L820.224 305.086C820.806 305.428 821.817 305.394 822.451 305.017L829.321 301.009C829.955 300.632 830.007 300.05 829.407 299.707Z" fill="#24126A"/>
<path d="M840.766 306.267L833.416 302.019C832.834 301.677 831.823 301.711 831.189 302.088L824.318 306.096C823.684 306.472 823.633 307.055 824.233 307.397L831.583 311.645C832.165 311.988 833.176 311.953 833.81 311.577L840.681 307.569C841.315 307.192 841.366 306.609 840.766 306.267Z" fill="#24126A"/>
<path d="M852.126 312.827L844.776 308.58C844.193 308.237 843.182 308.271 842.548 308.648L835.678 312.656C835.044 313.033 834.992 313.615 835.592 313.958L842.942 318.206C843.525 318.548 844.536 318.514 845.17 318.137L852.04 314.129C852.674 313.752 852.725 313.17 852.126 312.827Z" fill="#24126A"/>
<path d="M863.485 319.387L856.135 315.139C855.552 314.797 854.542 314.831 853.908 315.208L847.037 319.216C846.403 319.593 846.352 320.175 846.951 320.517L854.302 324.765C854.884 325.108 855.895 325.074 856.529 324.697L863.399 320.689C864.033 320.312 864.085 319.73 863.485 319.387Z" fill="#24126A"/>
<path d="M874.844 325.948L867.494 321.7C866.912 321.357 865.901 321.391 865.267 321.768L858.397 325.776C857.763 326.153 857.711 326.735 858.311 327.078L865.661 331.326C866.244 331.668 867.254 331.634 867.888 331.257L874.759 327.249C875.393 326.872 875.444 326.29 874.844 325.948Z" fill="#24126A"/>
<path d="M895.045 337.595L878.991 328.329C878.409 327.986 877.398 328.02 876.764 328.397L869.894 332.405C869.26 332.782 869.208 333.364 869.808 333.707L885.862 342.973C886.444 343.316 887.455 343.282 888.089 342.905L894.96 338.897C895.594 338.52 895.645 337.938 895.045 337.595Z" fill="#24126A"/>
<path d="M874.228 349.756L860.676 341.928C860.093 341.586 859.083 341.62 858.449 341.997L851.578 346.005C850.944 346.382 850.893 346.964 851.492 347.307L865.045 355.134C865.627 355.477 866.638 355.442 867.272 355.066L874.143 351.058C874.777 350.681 874.828 350.098 874.228 349.756Z" fill="#24126A"/>
<path d="M782.393 284.669L775.043 280.421C774.461 280.079 773.45 280.113 772.816 280.49L765.945 284.498C765.311 284.875 765.26 285.457 765.86 285.8L773.21 290.047C773.792 290.39 774.803 290.356 775.437 289.979L782.308 285.971C782.942 285.594 782.993 285.012 782.393 284.669Z" fill="#24126A"/>
<path d="M770.743 277.954L763.393 273.707C762.81 273.364 761.799 273.398 761.165 273.775L754.295 277.783C753.661 278.16 753.61 278.742 754.209 279.085L761.559 283.333C762.142 283.675 763.153 283.641 763.787 283.264L770.657 279.256C771.291 278.879 771.343 278.297 770.743 277.954Z" fill="#24126A"/>
<path d="M759.109 271.223L751.759 266.975C751.176 266.633 750.166 266.667 749.532 267.044L742.661 271.052C742.027 271.428 741.976 272.011 742.575 272.353L749.926 276.601C750.508 276.944 751.519 276.909 752.153 276.533L759.024 272.525C759.657 272.148 759.709 271.566 759.109 271.223Z" fill="#24126A"/>
<path d="M747.459 264.509L740.109 260.261C739.526 259.919 738.515 259.953 737.881 260.33L731.011 264.338C730.377 264.715 730.325 265.297 730.925 265.64L738.275 269.887C738.858 270.23 739.869 270.196 740.503 269.819L747.373 265.811C748.007 265.434 748.058 264.852 747.459 264.509Z" fill="#24126A"/>
<path d="M793.753 291.229L786.402 286.981C785.82 286.638 784.809 286.673 784.175 287.05L777.305 291.058C776.671 291.434 776.619 292.017 777.219 292.359L784.569 296.607C785.152 296.95 786.163 296.915 786.797 296.539L793.667 292.531C794.301 292.154 794.352 291.571 793.753 291.229Z" fill="#24126A"/>
<path d="M805.112 297.789L797.762 293.542C797.179 293.199 796.168 293.233 795.535 293.61L788.664 297.618C788.03 297.995 787.979 298.577 788.578 298.92L795.929 303.168C796.511 303.51 797.522 303.476 798.156 303.099L805.026 299.091C805.66 298.714 805.712 298.132 805.112 297.789Z" fill="#24126A"/>
<path d="M816.471 304.332L809.121 300.085C808.539 299.742 807.528 299.776 806.894 300.153L800.023 304.161C799.39 304.538 799.338 305.12 799.938 305.463L807.288 309.711C807.871 310.053 808.881 310.019 809.515 309.642L816.386 305.634C817.02 305.257 817.071 304.675 816.471 304.332Z" fill="#24126A"/>
<path d="M827.831 310.892L820.481 306.644C819.898 306.302 818.887 306.336 818.253 306.713L811.383 310.721C810.749 311.097 810.697 311.68 811.297 312.022L818.647 316.27C819.23 316.613 820.241 316.578 820.875 316.202L827.745 312.194C828.379 311.817 828.431 311.234 827.831 310.892Z" fill="#24126A"/>
<path d="M839.19 317.452L831.84 313.205C831.257 312.862 830.247 312.896 829.613 313.273L822.742 317.281C822.108 317.658 822.057 318.24 822.657 318.583L830.007 322.831C830.589 323.173 831.6 323.139 832.234 322.762L839.105 318.754C839.738 318.377 839.79 317.795 839.19 317.452Z" fill="#24126A"/>
<path d="M850.55 324.012L843.199 319.764C842.617 319.422 841.606 319.456 840.972 319.833L834.102 323.841C833.468 324.218 833.416 324.8 834.016 325.142L841.366 329.39C841.949 329.733 842.96 329.699 843.593 329.322L850.464 325.314C851.098 324.937 851.149 324.355 850.55 324.012Z" fill="#24126A"/>
<path d="M861.909 330.573L854.559 326.325C853.976 325.982 852.965 326.016 852.331 326.393L845.461 330.401C844.827 330.778 844.776 331.36 845.375 331.703L852.726 335.951C853.308 336.293 854.319 336.259 854.953 335.882L861.823 331.874C862.457 331.497 862.509 330.915 861.909 330.573Z" fill="#24126A"/>
<path d="M873.268 337.132L865.918 332.884C865.336 332.542 864.325 332.576 863.691 332.953L856.82 336.961C856.186 337.338 856.135 337.92 856.735 338.263L864.085 342.51C864.667 342.853 865.678 342.819 866.312 342.442L873.183 338.434C873.817 338.057 873.868 337.475 873.268 337.132Z" fill="#24126A"/>
<path d="M884.628 343.675L877.278 339.427C876.695 339.085 875.684 339.119 875.05 339.496L868.18 343.504C867.546 343.881 867.494 344.463 868.094 344.806L875.444 349.053C876.027 349.396 877.038 349.362 877.672 348.985L884.542 344.977C885.176 344.6 885.227 344.018 884.628 343.675Z" fill="#24126A"/>
<path d="M754.946 280.917L747.596 276.669C747.013 276.327 746.002 276.361 745.369 276.738L738.498 280.746C737.864 281.123 737.813 281.705 738.412 282.048L745.763 286.295C746.345 286.638 747.356 286.604 747.99 286.227L754.86 282.219C755.494 281.842 755.546 281.26 754.946 280.917Z" fill="#24126A"/>
<path d="M743.637 274.392L736.287 270.144C735.705 269.802 734.694 269.836 734.06 270.213L727.189 274.221C726.556 274.597 726.504 275.18 727.104 275.522L734.454 279.77C735.037 280.113 736.047 280.078 736.681 279.702L743.552 275.694C744.186 275.317 744.237 274.734 743.637 274.392Z" fill="#24126A"/>
<path d="M732.33 267.866L724.98 263.619C724.397 263.276 723.386 263.31 722.752 263.687L715.882 267.695C715.248 268.072 715.197 268.654 715.796 268.997L723.146 273.245C723.729 273.587 724.74 273.553 725.374 273.176L732.244 269.168C732.878 268.791 732.93 268.209 732.33 267.866Z" fill="#24126A"/>
<path d="M721.021 261.34L713.671 257.092C713.089 256.75 712.078 256.784 711.444 257.161L704.573 261.169C703.939 261.546 703.888 262.128 704.488 262.471L711.838 266.718C712.42 267.061 713.431 267.027 714.065 266.65L720.936 262.642C721.57 262.265 721.621 261.683 721.021 261.34Z" fill="#24126A"/>
<path d="M710.074 267.729L702.723 263.481C702.141 263.138 701.13 263.173 700.496 263.55L698.234 264.868C697.6 265.245 697.549 265.828 698.149 266.17L705.499 270.418C706.081 270.76 707.092 270.726 707.726 270.349L709.988 269.031C710.622 268.654 710.673 268.071 710.074 267.729Z" fill="#24126A"/>
<path d="M724.825 276.241L717.475 271.994C716.893 271.651 715.882 271.685 715.248 272.062L712.986 273.381C712.352 273.758 712.301 274.34 712.901 274.683L720.251 278.931C720.833 279.273 721.844 279.239 722.478 278.862L724.74 277.543C725.374 277.166 725.425 276.584 724.825 276.241Z" fill="#24126A"/>
<path d="M736.082 282.75L728.732 278.503C728.15 278.16 727.139 278.194 726.505 278.571L724.243 279.89C723.609 280.267 723.558 280.849 724.158 281.192L731.508 285.439C732.09 285.782 733.101 285.748 733.735 285.371L735.997 284.052C736.631 283.675 736.682 283.093 736.082 282.75Z" fill="#24126A"/>
<path d="M747.338 289.241L739.988 284.994C739.405 284.651 738.395 284.685 737.761 285.062L735.499 286.381C734.865 286.758 734.814 287.34 735.413 287.683L742.764 291.931C743.346 292.273 744.357 292.239 744.991 291.862L747.253 290.543C747.886 290.166 747.938 289.584 747.338 289.241Z" fill="#24126A"/>
<path d="M758.595 295.734L751.245 291.486C750.662 291.143 749.651 291.178 749.018 291.554L746.756 292.873C746.122 293.25 746.071 293.832 746.67 294.175L754.02 298.423C754.603 298.765 755.614 298.731 756.248 298.354L758.509 297.035C759.143 296.659 759.195 296.076 758.595 295.734Z" fill="#24126A"/>
<path d="M821.44 332.011L814.09 327.763C813.507 327.421 812.496 327.455 811.862 327.832L809.601 329.151C808.967 329.527 808.915 330.11 809.515 330.452L816.865 334.7C817.448 335.043 818.459 335.008 819.092 334.632L821.354 333.313C821.988 332.936 822.039 332.354 821.44 332.011Z" fill="#24126A"/>
<path d="M832.697 338.502L825.346 334.254C824.764 333.912 823.753 333.946 823.119 334.323L820.857 335.642C820.224 336.019 820.172 336.601 820.772 336.944L828.122 341.191C828.705 341.534 829.715 341.5 830.349 341.123L832.611 339.804C833.245 339.427 833.296 338.845 832.697 338.502Z" fill="#24126A"/>
<path d="M843.953 345.011L836.603 340.763C836.021 340.421 835.01 340.455 834.376 340.832L832.114 342.151C831.48 342.527 831.429 343.11 832.029 343.452L839.379 347.7C839.961 348.043 840.972 348.008 841.606 347.632L843.868 346.313C844.502 345.936 844.553 345.354 843.953 345.011Z" fill="#24126A"/>
<path d="M855.21 351.502L847.86 347.254C847.277 346.912 846.267 346.946 845.633 347.323L843.371 348.642C842.737 349.019 842.686 349.601 843.285 349.944L850.636 354.191C851.218 354.534 852.229 354.5 852.863 354.123L855.125 352.804C855.759 352.427 855.81 351.845 855.21 351.502Z" fill="#24126A"/>
<path d="M766.305 287.478L758.955 283.23C758.373 282.887 757.362 282.922 756.728 283.299L749.857 287.307C749.224 287.683 749.172 288.266 749.772 288.608L757.122 292.856C757.705 293.199 758.715 293.164 759.349 292.788L766.22 288.78C766.854 288.403 766.905 287.82 766.305 287.478Z" fill="#24126A"/>
<path d="M777.665 294.037L770.315 289.79C769.732 289.447 768.721 289.481 768.087 289.858L761.217 293.866C760.583 294.243 760.531 294.825 761.131 295.168L768.481 299.416C769.064 299.758 770.075 299.724 770.709 299.347L777.579 295.339C778.213 294.962 778.265 294.38 777.665 294.037Z" fill="#24126A"/>
<path d="M789.024 300.58L781.674 296.333C781.091 295.99 780.081 296.024 779.447 296.401L772.576 300.409C771.942 300.786 771.891 301.368 772.491 301.711L779.841 305.959C780.423 306.301 781.434 306.267 782.068 305.89L788.939 301.882C789.572 301.505 789.624 300.923 789.024 300.58Z" fill="#24126A"/>
<path d="M800.384 307.141L793.033 302.893C792.451 302.551 791.44 302.585 790.806 302.962L783.936 306.97C783.302 307.346 783.25 307.929 783.85 308.271L791.2 312.519C791.783 312.862 792.794 312.827 793.427 312.451L800.298 308.443C800.932 308.066 800.983 307.483 800.384 307.141Z" fill="#24126A"/>
<path d="M811.743 313.7L804.393 309.453C803.81 309.11 802.799 309.144 802.165 309.521L795.295 313.529C794.661 313.906 794.61 314.488 795.209 314.831L802.56 319.079C803.142 319.421 804.153 319.387 804.787 319.01L811.657 315.002C812.291 314.625 812.343 314.043 811.743 313.7Z" fill="#24126A"/>
<path d="M823.102 320.261L815.752 316.013C815.17 315.671 814.159 315.705 813.525 316.082L806.654 320.09C806.02 320.467 805.969 321.049 806.569 321.391L813.919 325.639C814.501 325.982 815.512 325.948 816.146 325.571L823.017 321.563C823.651 321.186 823.702 320.604 823.102 320.261Z" fill="#24126A"/>
<path d="M834.462 326.821L827.111 322.573C826.529 322.23 825.518 322.265 824.884 322.641L818.014 326.649C817.38 327.026 817.328 327.608 817.928 327.951L825.278 332.199C825.861 332.541 826.872 332.507 827.506 332.13L834.376 328.122C835.01 327.746 835.061 327.163 834.462 326.821Z" fill="#24126A"/>
<path d="M845.821 333.364L838.471 329.116C837.888 328.773 836.877 328.807 836.244 329.184L829.373 333.192C828.739 333.569 828.688 334.151 829.287 334.494L836.638 338.742C837.22 339.084 838.231 339.05 838.865 338.673L845.735 334.665C846.369 334.288 846.421 333.706 845.821 333.364Z" fill="#24126A"/>
<path d="M857.18 339.924L849.83 335.676C849.248 335.334 848.237 335.368 847.603 335.745L840.732 339.753C840.099 340.13 840.047 340.712 840.647 341.055L847.997 345.302C848.58 345.645 849.59 345.611 850.224 345.234L857.095 341.226C857.729 340.849 857.78 340.267 857.18 339.924Z" fill="#24126A"/>
<path d="M765.757 250.892L744.101 238.388C743.518 238.046 742.507 238.08 741.873 238.457L735.003 242.465C734.369 242.842 734.318 243.424 734.917 243.767L756.574 256.27C757.156 256.613 758.167 256.578 758.801 256.202L765.672 252.194C766.306 251.817 766.357 251.234 765.757 250.892Z" fill="#24126A"/>
<path d="M905.325 331.445L883.668 318.942C883.086 318.599 882.075 318.634 881.441 319.01L874.57 323.018C873.936 323.395 873.885 323.978 874.485 324.32L896.141 336.824C896.724 337.166 897.735 337.132 898.369 336.755L905.239 332.747C905.873 332.37 905.924 331.788 905.325 331.445Z" fill="#24126A"/>
<path d="M884.251 305.565L876.901 301.317C876.318 300.974 875.308 301.009 874.674 301.385L866.501 306.164C865.867 306.541 865.816 307.123 866.415 307.466L873.766 311.714C874.348 312.056 875.359 312.022 875.993 311.645L884.165 306.866C884.799 306.49 884.851 305.907 884.251 305.565Z" fill="#24126A"/>
<path d="M801.754 257.949L789.983 251.167C789.4 250.824 788.39 250.858 787.756 251.235L779.583 256.014C778.949 256.391 778.898 256.973 779.497 257.316L791.268 264.098C791.85 264.441 792.861 264.407 793.495 264.03L801.668 259.251C802.302 258.874 802.353 258.292 801.754 257.949Z" fill="#24126A"/>
<path d="M873.32 299.245L861.549 292.462C860.967 292.12 859.956 292.154 859.322 292.531L851.149 297.31C850.515 297.687 850.464 298.269 851.064 298.611L862.834 305.394C863.417 305.737 864.428 305.703 865.062 305.326L873.234 300.547C873.868 300.17 873.92 299.588 873.32 299.245Z" fill="#24126A"/>
<path d="M818.151 267.403L806.38 260.621C805.798 260.278 804.787 260.312 804.153 260.689L795.98 265.468C795.347 265.845 795.295 266.427 795.895 266.77L807.665 273.552C808.248 273.895 809.259 273.861 809.893 273.484L818.065 268.705C818.699 268.328 818.751 267.746 818.151 267.403Z" fill="#24126A"/>
<path d="M795.963 266.787L847.106 296.316C847.74 296.676 848.734 296.693 849.333 296.35L857.677 291.486C858.277 291.143 858.243 290.561 857.609 290.184L806.466 260.655L795.963 266.787Z" fill="#24126A"/>
<path d="M893.725 317.127L901.915 321.854C902.395 322.128 903.217 322.111 903.748 321.803L907.089 319.85C907.62 319.542 907.655 319.062 907.158 318.788L898.968 314.061C898.488 313.787 897.666 313.804 897.135 314.112L893.794 316.065C893.263 316.373 893.228 316.853 893.725 317.127Z" fill="#24126A"/>
<path d="M882.366 310.566L890.556 315.293C891.035 315.567 891.858 315.55 892.389 315.242L895.73 313.289C896.261 312.981 896.295 312.501 895.798 312.227L887.609 307.5C887.129 307.226 886.307 307.243 885.775 307.551L882.434 309.504C881.903 309.812 881.869 310.292 882.366 310.566Z" fill="#24126A"/>
<path d="M887.815 320.569L896.005 325.296C896.485 325.57 897.307 325.553 897.838 325.245L901.179 323.292C901.71 322.984 901.745 322.504 901.248 322.23L893.058 317.503C892.578 317.229 891.756 317.246 891.225 317.554L887.884 319.507C887.352 319.815 887.318 320.295 887.815 320.569Z" fill="#24126A"/>
</g>
</g>
</g>
<g opacity="0.8">
<path d="M603.162 327.096L595.88 322.882C595.298 322.54 595.366 321.957 596.052 321.563L604.653 316.596C605.321 316.202 606.349 316.168 606.931 316.493L614.213 320.69C614.796 321.032 614.727 321.615 614.042 322.009L605.441 326.976C604.773 327.37 603.745 327.404 603.162 327.078V327.096Z" fill="#212121"/>
<path d="M614.419 333.587L607.137 329.391C606.555 329.048 606.623 328.466 607.309 328.072L615.91 323.105C616.578 322.711 617.606 322.677 618.188 323.002L625.47 327.198C626.052 327.541 625.984 328.123 625.299 328.517L616.698 333.484C616.029 333.878 615.001 333.913 614.419 333.587Z" fill="#212121"/>
<path d="M625.675 340.078L618.393 335.882C617.811 335.54 617.879 334.957 618.564 334.563L627.165 329.596C627.834 329.202 628.862 329.168 629.444 329.493L636.726 333.69C637.308 334.032 637.24 334.615 636.554 335.009L627.953 339.976C627.285 340.37 626.257 340.404 625.675 340.078Z" fill="#212121"/>
<path d="M641.232 334.718L633.951 330.521C633.368 330.179 633.437 329.596 634.122 329.203L641.335 325.04C642.003 324.646 643.031 324.612 643.614 324.938L650.896 329.134C651.478 329.477 651.41 330.059 650.724 330.453L643.511 334.615C642.843 335.009 641.815 335.043 641.232 334.718Z" fill="#212121"/>
<path d="M652.472 341.209L645.19 336.995C644.607 336.652 644.676 336.07 645.361 335.676L652.574 331.514C653.243 331.12 654.271 331.086 654.853 331.411L662.135 335.608C662.717 335.95 662.649 336.533 661.963 336.927L654.75 341.089C654.082 341.483 653.054 341.517 652.472 341.191V341.209Z" fill="#212121"/>
<path d="M663.728 347.701L656.447 343.487C655.864 343.145 655.933 342.562 656.618 342.168L663.831 338.006C664.499 337.612 665.527 337.578 666.11 337.903L673.392 342.1C673.974 342.442 673.906 343.025 673.22 343.419L666.007 347.581C665.339 347.975 664.311 348.009 663.728 347.684V347.701Z" fill="#212121"/>
<path d="M674.985 354.192L667.704 349.996C667.121 349.653 667.19 349.071 667.875 348.677L675.088 344.515C675.756 344.121 676.784 344.087 677.367 344.412L684.648 348.609C685.231 348.951 685.162 349.534 684.477 349.927L677.264 354.09C676.596 354.484 675.568 354.518 674.985 354.192Z" fill="#212121"/>
<path d="M686.225 360.683L678.943 356.47C678.36 356.127 678.429 355.545 679.114 355.151L686.327 350.989C686.996 350.595 688.024 350.56 688.606 350.886L695.888 355.082C696.47 355.425 696.402 356.007 695.716 356.401L688.503 360.563C687.835 360.957 686.807 360.991 686.225 360.666V360.683Z" fill="#212121"/>
<path d="M697.481 367.175L690.2 362.962C689.617 362.619 689.686 362.037 690.371 361.643L697.584 357.481C698.252 357.087 699.28 357.053 699.863 357.378L707.145 361.574C707.727 361.917 707.659 362.499 706.973 362.893L699.76 367.055C699.092 367.449 698.064 367.484 697.481 367.158V367.175Z" fill="#212121"/>
<path d="M708.737 373.684L701.456 369.487C700.873 369.145 700.942 368.562 701.627 368.168L708.84 364.006C709.508 363.612 710.536 363.578 711.119 363.903L718.4 368.1C718.983 368.442 718.914 369.025 718.229 369.419L711.016 373.581C710.348 373.975 709.32 374.009 708.737 373.684Z" fill="#212121"/>
<path d="M719.977 380.175L712.696 375.962C712.113 375.619 712.182 375.037 712.867 374.643L720.08 370.481C720.748 370.087 721.776 370.053 722.359 370.378L729.641 374.574C730.223 374.917 730.155 375.499 729.469 375.893L722.256 380.055C721.588 380.449 720.56 380.484 719.977 380.158V380.175Z" fill="#212121"/>
<path d="M731.233 386.667L723.952 382.471C723.369 382.128 723.438 381.546 724.123 381.152L731.336 376.99C732.004 376.596 733.032 376.561 733.615 376.887L740.896 381.083C741.479 381.426 741.41 382.008 740.725 382.402L733.512 386.564C732.844 386.958 731.816 386.992 731.233 386.667Z" fill="#212121"/>
<path d="M742.49 393.158L735.208 388.962C734.626 388.619 734.694 388.037 735.38 387.643L742.593 383.481C743.261 383.087 744.289 383.053 744.872 383.378L752.153 387.574C752.736 387.917 752.667 388.499 751.982 388.893L744.769 393.055C744.101 393.449 743.073 393.484 742.49 393.158Z" fill="#212121"/>
<path d="M657.8 331.634L650.518 327.437C649.936 327.095 650.004 326.512 650.689 326.119L657.903 321.956C658.571 321.562 659.599 321.528 660.181 321.854L667.463 326.05C668.045 326.393 667.977 326.975 667.292 327.369L660.078 331.531C659.41 331.925 658.382 331.959 657.8 331.634Z" fill="#212121"/>
<path d="M646.39 325.057L639.108 320.86C638.525 320.518 638.594 319.935 639.279 319.541L646.492 315.379C647.161 314.985 648.189 314.951 648.771 315.276L656.053 319.473C656.635 319.815 656.567 320.398 655.881 320.792L648.668 324.954C648 325.348 646.972 325.382 646.39 325.057Z" fill="#212121"/>
<path d="M634.945 318.445L619.25 309.385C618.668 309.042 618.736 308.46 619.422 308.066L626.635 303.904C627.303 303.51 628.331 303.475 628.914 303.801L644.608 312.862C645.19 313.204 645.122 313.787 644.436 314.181L637.223 318.343C636.555 318.737 635.527 318.771 634.945 318.445Z" fill="#212121"/>
<path d="M642.945 310.412L630.215 303.064C629.633 302.722 629.701 302.139 630.387 301.746L637.6 297.583C638.268 297.189 639.296 297.155 639.879 297.481L652.609 304.829C653.191 305.171 653.123 305.753 652.437 306.147L645.224 310.31C644.556 310.704 643.528 310.738 642.945 310.412Z" fill="#212121"/>
<path d="M669.057 338.126L661.775 333.93C661.192 333.587 661.261 333.005 661.946 332.611L669.159 328.449C669.828 328.055 670.856 328.02 671.438 328.346L678.72 332.542C679.302 332.885 679.234 333.467 678.548 333.861L671.335 338.023C670.667 338.417 669.639 338.451 669.057 338.126Z" fill="#212121"/>
<path d="M680.313 344.635L673.032 340.438C672.449 340.096 672.518 339.513 673.203 339.12L680.416 334.957C681.084 334.563 682.112 334.529 682.695 334.855L689.977 339.051C690.559 339.394 690.491 339.976 689.805 340.37L682.592 344.532C681.924 344.926 680.896 344.96 680.313 344.635Z" fill="#212121"/>
<path d="M691.553 351.126L684.271 346.93C683.688 346.587 683.757 346.005 684.442 345.611L691.655 341.449C692.324 341.055 693.352 341.02 693.934 341.346L701.216 345.542C701.798 345.885 701.73 346.467 701.045 346.861L693.831 351.023C693.163 351.417 692.135 351.451 691.553 351.126Z" fill="#212121"/>
<path d="M702.81 357.617L695.528 353.421C694.945 353.078 695.014 352.496 695.699 352.102L702.912 347.94C703.581 347.546 704.608 347.512 705.191 347.837L712.473 352.033C713.055 352.376 712.987 352.958 712.301 353.352L705.088 357.514C704.42 357.908 703.392 357.943 702.81 357.617Z" fill="#212121"/>
<path d="M714.066 364.109L706.785 359.913C706.202 359.57 706.271 358.988 706.956 358.594L714.169 354.432C714.837 354.038 715.865 354.004 716.448 354.329L723.73 358.526C724.312 358.868 724.244 359.451 723.558 359.844L716.345 364.007C715.677 364.401 714.649 364.435 714.066 364.109Z" fill="#212121"/>
<path d="M725.306 370.601L718.024 366.388C717.441 366.045 717.51 365.463 718.195 365.069L725.408 360.907C726.077 360.513 727.105 360.478 727.687 360.804L734.969 365C735.551 365.343 735.483 365.925 734.797 366.319L727.584 370.481C726.916 370.875 725.888 370.909 725.306 370.584V370.601Z" fill="#212121"/>
<path d="M736.562 377.092L729.281 372.879C728.698 372.536 728.767 371.954 729.452 371.56L736.665 367.398C737.333 367.004 738.361 366.97 738.944 367.295L746.226 371.491C746.808 371.834 746.74 372.416 746.054 372.81L738.841 376.972C738.173 377.366 737.145 377.401 736.562 377.075V377.092Z" fill="#212121"/>
<path d="M747.818 383.584L740.537 379.388C739.954 379.045 740.023 378.463 740.708 378.069L747.921 373.907C748.589 373.513 749.617 373.478 750.2 373.804L757.481 378C758.064 378.343 757.995 378.925 757.31 379.319L750.097 383.481C749.429 383.875 748.401 383.909 747.818 383.584Z" fill="#212121"/>
<path d="M759.059 390.076L751.777 385.862C751.194 385.52 751.263 384.937 751.948 384.543L759.161 380.381C759.83 379.987 760.858 379.953 761.44 380.278L768.722 384.475C769.304 384.817 769.236 385.4 768.55 385.794L761.337 389.956C760.669 390.35 759.641 390.384 759.059 390.059V390.076Z" fill="#212121"/>
<path d="M779.07 401.62L763.17 392.439C762.588 392.097 762.656 391.514 763.342 391.121L770.555 386.958C771.223 386.564 772.251 386.53 772.834 386.856L788.733 396.036C789.316 396.379 789.247 396.961 788.562 397.355L781.349 401.517C780.681 401.911 779.653 401.945 779.07 401.62Z" fill="#212121"/>
<path d="M800.967 388.979L787.551 381.237C786.969 380.895 787.037 380.312 787.723 379.918L794.936 375.756C795.604 375.362 796.632 375.328 797.214 375.653L810.63 383.395C811.212 383.738 811.144 384.32 810.459 384.714L803.245 388.876C802.577 389.27 801.549 389.305 800.967 388.979Z" fill="#212121"/>
<path d="M688.76 336.858L681.478 332.662C680.895 332.319 680.964 331.737 681.649 331.343L688.862 327.181C689.531 326.787 690.559 326.753 691.141 327.078L698.423 331.275C699.005 331.617 698.937 332.2 698.252 332.593L691.038 336.756C690.37 337.15 689.342 337.184 688.76 336.858Z" fill="#212121"/>
<path d="M677.229 330.213L669.948 326.017C669.365 325.674 669.434 325.092 670.119 324.698L677.332 320.536C678 320.142 679.028 320.107 679.611 320.433L686.893 324.646C687.475 324.989 687.407 325.571 686.721 325.965L679.508 330.127C678.84 330.521 677.812 330.555 677.229 330.23V330.213Z" fill="#212121"/>
<path d="M665.699 323.55L658.417 319.353C657.835 319.011 657.903 318.428 658.589 318.035L665.802 313.872C666.47 313.478 667.498 313.444 668.081 313.77L675.362 317.966C675.945 318.309 675.876 318.891 675.191 319.285L667.978 323.447C667.31 323.841 666.282 323.875 665.699 323.55Z" fill="#212121"/>
<path d="M654.168 316.904L646.886 312.708C646.304 312.365 646.372 311.783 647.058 311.389L654.271 307.227C654.939 306.833 655.967 306.799 656.549 307.124L663.831 311.321C664.414 311.663 664.345 312.245 663.66 312.639L656.447 316.802C655.778 317.196 654.75 317.23 654.168 316.904Z" fill="#212121"/>
<path d="M700.017 343.35L692.735 339.153C692.152 338.811 692.221 338.228 692.906 337.834L700.119 333.672C700.788 333.278 701.815 333.244 702.398 333.569L709.68 337.766C710.262 338.108 710.194 338.691 709.508 339.085L702.295 343.247C701.627 343.641 700.599 343.675 700.017 343.35Z" fill="#212121"/>
<path d="M711.256 349.858L703.974 345.662C703.392 345.319 703.46 344.737 704.145 344.343L711.359 340.181C712.027 339.787 713.055 339.753 713.637 340.078L720.919 344.275C721.501 344.617 721.433 345.2 720.748 345.594L713.534 349.756C712.866 350.15 711.838 350.184 711.256 349.858Z" fill="#212121"/>
<path d="M722.513 356.351L715.231 352.154C714.648 351.812 714.717 351.229 715.402 350.835L722.615 346.673C723.284 346.279 724.312 346.245 724.894 346.57L732.176 350.767C732.758 351.109 732.69 351.692 732.004 352.086L724.791 356.248C724.123 356.642 723.095 356.676 722.513 356.351Z" fill="#212121"/>
<path d="M733.769 362.842L726.488 358.645C725.905 358.303 725.974 357.72 726.659 357.327L733.872 353.164C734.54 352.77 735.568 352.736 736.151 353.062L743.433 357.258C744.015 357.601 743.947 358.183 743.261 358.577L736.048 362.739C735.38 363.133 734.352 363.167 733.769 362.842Z" fill="#212121"/>
<path d="M745.009 369.334L737.727 365.12C737.145 364.777 737.213 364.195 737.898 363.801L745.112 359.639C745.78 359.245 746.808 359.211 747.39 359.536L754.672 363.733C755.254 364.075 755.186 364.658 754.501 365.052L747.287 369.214C746.619 369.608 745.591 369.642 745.009 369.316V369.334Z" fill="#212121"/>
<path d="M756.266 375.825L748.984 371.611C748.401 371.269 748.47 370.686 749.155 370.292L756.368 366.13C757.037 365.736 758.065 365.702 758.647 366.027L765.929 370.224C766.511 370.566 766.443 371.149 765.757 371.543L758.544 375.705C757.876 376.099 756.848 376.133 756.266 375.808V375.825Z" fill="#212121"/>
<path d="M767.522 382.316L760.241 378.12C759.658 377.777 759.727 377.195 760.412 376.801L767.625 372.639C768.293 372.245 769.321 372.211 769.904 372.536L777.186 376.733C777.768 377.075 777.7 377.658 777.014 378.052L769.801 382.214C769.133 382.608 768.105 382.642 767.522 382.316Z" fill="#212121"/>
<path d="M778.762 388.808L771.48 384.595C770.897 384.252 770.966 383.67 771.651 383.276L778.864 379.114C779.533 378.72 780.561 378.685 781.143 379.011L788.425 383.207C789.007 383.55 788.939 384.132 788.254 384.526L781.04 388.688C780.372 389.082 779.344 389.116 778.762 388.791V388.808Z" fill="#212121"/>
<path d="M790.018 395.299L782.737 391.086C782.154 390.743 782.223 390.161 782.908 389.767L790.121 385.605C790.789 385.211 791.817 385.177 792.4 385.502L799.682 389.698C800.264 390.041 800.196 390.623 799.51 391.017L792.297 395.179C791.629 395.573 790.601 395.608 790.018 395.282V395.299Z" fill="#212121"/>
<path d="M682.832 320.81L675.55 316.613C674.968 316.271 675.036 315.688 675.722 315.294L682.935 311.132C683.603 310.738 684.631 310.704 685.213 311.029L692.495 315.226C693.078 315.568 693.009 316.151 692.324 316.545L685.111 320.707C684.442 321.101 683.414 321.135 682.832 320.81Z" fill="#212121"/>
<path d="M671.644 314.335L664.363 310.139C663.78 309.796 663.849 309.214 664.534 308.82L671.747 304.658C672.415 304.264 673.443 304.229 674.026 304.555L681.308 308.751C681.89 309.094 681.822 309.676 681.136 310.07L673.923 314.232C673.255 314.626 672.227 314.66 671.644 314.335Z" fill="#212121"/>
<path d="M660.438 307.878L653.157 303.682C652.574 303.339 652.643 302.757 653.328 302.363L660.541 298.201C661.209 297.807 662.237 297.772 662.82 298.098L670.102 302.294C670.684 302.637 670.616 303.219 669.93 303.613L662.717 307.775C662.049 308.169 661.021 308.203 660.438 307.878Z" fill="#212121"/>
<path d="M649.251 301.42L641.969 297.224C641.387 296.881 641.455 296.299 642.141 295.905L649.354 291.743C650.022 291.349 651.05 291.314 651.632 291.64L658.914 295.836C659.497 296.179 659.428 296.761 658.743 297.155L651.53 301.317C650.861 301.711 649.833 301.745 649.251 301.42Z" fill="#212121"/>
<path d="M660.765 294.775L653.483 290.578C652.9 290.236 652.969 289.653 653.654 289.259L656.036 287.889C656.704 287.495 657.732 287.461 658.315 287.786L665.596 291.983C666.179 292.325 666.11 292.908 665.425 293.302L663.043 294.672C662.375 295.066 661.347 295.1 660.765 294.775Z" fill="#212121"/>
<path d="M675.379 303.201L668.097 299.005C667.515 298.662 667.583 298.08 668.268 297.686L670.65 296.316C671.318 295.922 672.346 295.888 672.929 296.213L680.21 300.427C680.793 300.769 680.724 301.351 680.039 301.745L677.658 303.116C676.989 303.51 675.961 303.544 675.379 303.218V303.201Z" fill="#212121"/>
<path d="M686.516 309.642L679.234 305.445C678.651 305.103 678.72 304.52 679.405 304.126L681.787 302.756C682.455 302.362 683.483 302.328 684.065 302.653L691.347 306.85C691.93 307.192 691.861 307.775 691.176 308.169L688.794 309.539C688.126 309.933 687.098 309.967 686.516 309.642Z" fill="#212121"/>
<path d="M697.67 316.082L690.388 311.868C689.806 311.526 689.874 310.943 690.559 310.549L692.941 309.179C693.609 308.785 694.637 308.751 695.22 309.076L702.501 313.273C703.084 313.615 703.015 314.198 702.33 314.592L699.949 315.962C699.28 316.356 698.252 316.39 697.67 316.065V316.082Z" fill="#212121"/>
<path d="M708.823 322.505L701.541 318.309C700.959 317.966 701.028 317.384 701.713 316.99L704.094 315.619C704.763 315.226 705.791 315.191 706.373 315.517L713.655 319.713C714.237 320.056 714.169 320.638 713.483 321.032L711.102 322.402C710.434 322.796 709.406 322.83 708.823 322.505Z" fill="#212121"/>
<path d="M771.052 358.423L763.77 354.227C763.187 353.884 763.256 353.302 763.941 352.908L766.323 351.537C766.991 351.144 768.019 351.109 768.602 351.435L775.883 355.648C776.466 355.991 776.397 356.573 775.712 356.967L773.33 358.337C772.662 358.731 771.634 358.766 771.052 358.44V358.423Z" fill="#212121"/>
<path d="M782.205 364.862L774.923 360.666C774.341 360.323 774.409 359.741 775.095 359.347L777.476 357.977C778.144 357.583 779.172 357.549 779.755 357.874L787.037 362.071C787.619 362.413 787.551 362.995 786.865 363.389L784.484 364.76C783.816 365.154 782.788 365.188 782.205 364.862Z" fill="#212121"/>
<path d="M793.359 371.303L786.078 367.09C785.495 366.747 785.564 366.165 786.249 365.771L788.631 364.401C789.299 364.007 790.327 363.973 790.909 364.298L798.191 368.494C798.773 368.837 798.705 369.419 798.02 369.813L795.638 371.183C794.97 371.577 793.942 371.612 793.359 371.286V371.303Z" fill="#212121"/>
<path d="M804.496 377.726L797.214 373.529C796.632 373.187 796.7 372.604 797.386 372.21L799.767 370.84C800.435 370.446 801.463 370.412 802.046 370.737L809.328 374.951C809.91 375.294 809.842 375.876 809.156 376.27L806.775 377.64C806.107 378.034 805.079 378.068 804.496 377.743V377.726Z" fill="#212121"/>
<path d="M694.089 327.301L686.807 323.104C686.225 322.762 686.293 322.179 686.978 321.786L694.192 317.623C694.86 317.229 695.888 317.195 696.47 317.521L703.752 321.734C704.335 322.077 704.266 322.659 703.581 323.053L696.368 327.215C695.699 327.609 694.671 327.643 694.089 327.318V327.301Z" fill="#212121"/>
<path d="M705.346 333.792L698.064 329.596C697.481 329.253 697.55 328.671 698.235 328.277L705.448 324.115C706.117 323.721 707.145 323.686 707.727 324.012L715.009 328.208C715.591 328.551 715.523 329.133 714.837 329.527L707.624 333.689C706.956 334.083 705.928 334.117 705.346 333.792Z" fill="#212121"/>
<path d="M716.585 340.284L709.303 336.088C708.721 335.745 708.789 335.163 709.475 334.769L716.688 330.607C717.356 330.213 718.384 330.179 718.966 330.504L726.248 334.7C726.831 335.043 726.762 335.625 726.077 336.019L718.864 340.181C718.195 340.575 717.167 340.61 716.585 340.284Z" fill="#212121"/>
<path d="M727.842 346.775L720.56 342.579C719.978 342.236 720.046 341.654 720.731 341.26L727.945 337.098C728.613 336.704 729.641 336.67 730.223 336.995L737.505 341.209C738.087 341.551 738.019 342.134 737.334 342.528L730.12 346.69C729.452 347.084 728.424 347.118 727.842 346.793V346.775Z" fill="#212121"/>
<path d="M739.098 353.268L731.816 349.071C731.233 348.729 731.302 348.146 731.987 347.752L739.2 343.59C739.869 343.196 740.897 343.162 741.479 343.487L748.761 347.684C749.343 348.026 749.275 348.609 748.589 349.003L741.376 353.165C740.708 353.559 739.68 353.593 739.098 353.268Z" fill="#212121"/>
<path d="M750.338 359.759L743.056 355.562C742.474 355.22 742.542 354.638 743.227 354.244L750.441 350.081C751.109 349.687 752.137 349.653 752.719 349.979L760.001 354.175C760.584 354.518 760.515 355.1 759.83 355.494L752.617 359.656C751.948 360.05 750.92 360.084 750.338 359.759Z" fill="#212121"/>
<path d="M761.594 366.25L754.312 362.054C753.729 361.711 753.798 361.129 754.483 360.735L761.696 356.573C762.365 356.179 763.393 356.144 763.975 356.47L771.257 360.683C771.839 361.026 771.771 361.608 771.086 362.002L763.872 366.164C763.204 366.558 762.176 366.593 761.594 366.267V366.25Z" fill="#212121"/>
<path d="M772.851 372.759L765.569 368.562C764.986 368.22 765.055 367.638 765.74 367.244L772.953 363.081C773.622 362.687 774.65 362.653 775.232 362.979L782.514 367.175C783.096 367.518 783.028 368.1 782.342 368.494L775.129 372.656C774.461 373.05 773.433 373.084 772.851 372.759Z" fill="#212121"/>
<path d="M784.09 379.25L776.808 375.054C776.226 374.711 776.294 374.129 776.979 373.735L784.193 369.573C784.861 369.179 785.889 369.144 786.471 369.47L793.753 373.666C794.335 374.009 794.267 374.591 793.582 374.985L786.368 379.147C785.7 379.541 784.672 379.575 784.09 379.25Z" fill="#212121"/>
<path d="M629.77 328.089L608.319 315.705C607.736 315.362 607.805 314.78 608.49 314.386L615.703 310.224C616.371 309.83 617.4 309.796 617.982 310.121L639.433 322.505C640.016 322.847 639.947 323.43 639.262 323.824L632.049 327.986C631.38 328.38 630.352 328.414 629.77 328.089Z" fill="#212121"/>
<path d="M767.985 407.872L746.534 395.488C745.951 395.146 746.02 394.563 746.705 394.169L753.918 390.007C754.586 389.613 755.614 389.579 756.197 389.904L777.648 402.288C778.23 402.631 778.162 403.213 777.476 403.607L770.263 407.769C769.595 408.163 768.567 408.197 767.985 407.872Z" fill="#212121"/>
<path d="M722.992 396.242L715.71 392.045C715.128 391.703 715.196 391.12 715.882 390.726L724.483 385.759C725.151 385.365 726.179 385.331 726.761 385.656L734.043 389.853C734.626 390.195 734.557 390.778 733.872 391.172L725.271 396.139C724.603 396.533 723.575 396.567 722.992 396.242Z" fill="#212121"/>
<path d="M641.284 349.088L629.633 342.357C629.051 342.014 629.119 341.432 629.805 341.038L638.406 336.071C639.074 335.677 640.102 335.642 640.684 335.968L652.335 342.699C652.917 343.042 652.849 343.624 652.164 344.018L643.563 348.985C642.894 349.379 641.867 349.413 641.284 349.088Z" fill="#212121"/>
<path d="M712.147 389.989L700.497 383.258C699.914 382.915 699.983 382.333 700.668 381.939L709.269 376.972C709.937 376.578 710.965 376.544 711.548 376.869L723.198 383.601C723.781 383.943 723.712 384.526 723.027 384.919L714.426 389.887C713.758 390.281 712.73 390.315 712.147 389.989Z" fill="#212121"/>
<path d="M657.526 358.457L645.875 351.726C645.293 351.383 645.361 350.801 646.047 350.407L654.648 345.44C655.316 345.046 656.344 345.012 656.926 345.337L668.577 352.068C669.16 352.411 669.091 352.993 668.406 353.387L659.805 358.354C659.137 358.748 658.109 358.783 657.526 358.457Z" fill="#212121"/>
<path d="M656.995 345.405L707.659 374.643C708.293 375.003 708.293 375.602 707.659 375.962L698.886 381.015C698.252 381.374 697.241 381.374 696.608 381.015L645.944 351.777L656.995 345.405Z" fill="#212121"/>
<path d="M754.432 408.026L762.554 412.702C763.033 412.976 762.965 413.456 762.417 413.781L758.904 415.819C758.356 416.145 757.516 416.179 757.037 415.905L748.916 411.229C748.436 410.955 748.504 410.475 749.053 410.15L752.565 408.112C753.113 407.786 753.953 407.752 754.432 408.026Z" fill="#212121"/>
<path d="M743.09 401.465L751.211 406.141C751.691 406.416 751.622 406.895 751.074 407.221L747.562 409.259C747.013 409.584 746.174 409.618 745.694 409.344L737.573 404.668C737.093 404.394 737.162 403.915 737.71 403.589L741.222 401.551C741.77 401.226 742.61 401.191 743.09 401.465Z" fill="#212121"/>
<path d="M731.834 394.974L739.955 399.65C740.435 399.924 740.366 400.404 739.818 400.729L736.306 402.768C735.757 403.093 734.918 403.127 734.438 402.853L726.317 398.177C725.837 397.903 725.906 397.424 726.454 397.098L729.966 395.06C730.515 394.734 731.354 394.7 731.834 394.974Z" fill="#212121"/>
<path d="M749.309 397.886L757.431 402.562C757.91 402.836 757.842 403.316 757.294 403.641L753.781 405.68C753.233 406.005 752.393 406.039 751.914 405.765L743.792 401.089C743.313 400.815 743.381 400.336 743.93 400.01L747.442 397.972C747.99 397.647 748.83 397.612 749.309 397.886Z" fill="#212121"/>
</g>
<path d="M864.085 222.888C863.537 222.888 862.954 222.717 862.389 222.409C860.676 221.415 859.596 219.171 860.007 217.39C860.213 216.534 860.71 215.9 861.429 215.575C862.218 215.232 863.211 215.335 864.136 215.866C865.85 216.859 866.929 219.12 866.518 220.884C866.312 221.741 865.816 222.374 865.096 222.7C864.788 222.837 864.445 222.905 864.102 222.905L864.085 222.888ZM862.44 216.157C862.2 216.157 861.961 216.208 861.738 216.294C861.241 216.5 860.898 216.962 860.761 217.561C860.419 219.017 861.327 220.884 862.766 221.724C863.468 222.135 864.188 222.22 864.77 221.963C865.267 221.758 865.61 221.295 865.747 220.696C866.09 219.24 865.182 217.356 863.742 216.534C863.297 216.277 862.851 216.157 862.44 216.157Z" fill="#F2B030"/>
<path d="M873.355 228.25C872.806 228.25 872.224 228.078 871.658 227.77C869.945 226.777 868.866 224.533 869.277 222.752C869.483 221.895 869.979 221.261 870.699 220.936C871.487 220.593 872.481 220.696 873.406 221.227C875.119 222.221 876.199 224.481 875.788 226.246C875.582 227.102 875.085 227.736 874.366 228.061C874.057 228.198 873.714 228.267 873.372 228.267L873.355 228.25ZM871.71 221.518C871.47 221.518 871.23 221.57 871.007 221.655C870.511 221.861 870.168 222.323 870.031 222.923C869.688 224.379 870.596 226.246 872.035 227.085C872.738 227.496 873.458 227.582 874.04 227.325C874.537 227.119 874.88 226.657 875.017 226.057C875.359 224.601 874.451 222.717 873.012 221.895C872.567 221.638 872.121 221.518 871.71 221.518Z" fill="#F2B030"/>
<path d="M884.679 231.503C884.302 233.13 882.709 233.696 881.132 232.788C879.556 231.88 878.562 229.825 878.939 228.198C879.316 226.57 880.91 226.005 882.486 226.913C884.079 227.821 885.056 229.876 884.679 231.503Z" fill="#F2B030"/>
<path d="M706.818 129.163L701.85 126.303L702.244 124.008L707.195 126.885L706.818 129.163Z" fill="#F2B030"/>
<path d="M714.031 133.325L709.062 130.465L709.439 128.17L714.408 131.047L714.031 133.325Z" fill="#F2B030"/>
<path d="M699.674 125.053L688.794 118.767L689.171 116.472L700.068 122.758L699.674 125.053Z" fill="#F2B030"/>
<path d="M701.044 168.318L692.734 163.522L693.06 161.604L701.37 166.399L701.044 168.318Z" fill="#F2B030"/>
<path d="M708.138 172.411L703.975 170.013L704.3 168.095L708.446 170.493L708.138 172.411Z" fill="#F2B030"/>
<path d="M702.74 174.244L699.211 172.189L699.519 170.271L703.066 172.326L702.74 174.244Z" fill="#F2B030"/>
<path d="M708.669 177.652L704.522 175.254L704.831 173.336L708.994 175.734L708.669 177.652Z" fill="#F2B030"/>
<path d="M714.768 186.114L698.44 176.694L698.766 174.775L715.094 184.196L714.768 186.114Z" fill="#F2B030"/>
<path d="M700.616 223.778L684.305 214.358L684.63 212.439L700.941 221.86L700.616 223.778Z" fill="#F2B030"/>
<path d="M706.886 227.392L702.74 224.995L703.066 223.076L707.212 225.474L706.886 227.392Z" fill="#F2B030"/>
<path d="M701.233 183.236L697.687 181.198L698.012 179.279L701.559 181.318L701.233 183.236Z" fill="#F2B030"/>
<path d="M707.16 186.662L702.997 184.264L703.323 182.346L707.486 184.744L707.16 186.662Z" fill="#F2B030"/>
<path d="M705.911 190.876L696.933 185.686L697.258 183.768L706.236 188.957L705.911 190.876Z" fill="#F2B030"/>
<path d="M711.907 194.336L707.761 191.938L708.086 190.02L712.233 192.417L711.907 194.336Z" fill="#F2B030"/>
<path d="M717.955 197.812L713.792 195.414L714.118 193.496L718.264 195.894L717.955 197.812Z" fill="#F2B030"/>
<path d="M727.687 203.448L719.84 198.909L720.148 196.99L728.012 201.529L727.687 203.448Z" fill="#F2B030"/>
<path d="M721.468 209.717L717.321 207.319L717.647 205.4L721.793 207.798L721.468 209.717Z" fill="#F2B030"/>
<path d="M731.216 215.352L723.352 210.813L723.677 208.895L731.524 213.416L731.216 215.352Z" fill="#F2B030"/>
<path d="M699.588 197.093L695.425 194.695L695.75 192.776L699.897 195.174L699.588 197.093Z" fill="#F2B030"/>
<path d="M705.619 200.57L701.473 198.172L701.781 196.254L705.944 198.652L705.619 200.57Z" fill="#F2B030"/>
<path d="M715.351 206.188L707.504 201.666L707.829 199.748L715.676 204.27L715.351 206.188Z" fill="#F2B030"/>
<path d="M728.115 208.62L723.969 206.222L724.294 204.304L728.441 206.702L728.115 208.62Z" fill="#F2B030"/>
<path d="M734.163 212.114L730 209.716L730.326 207.798L734.472 210.196L734.163 212.114Z" fill="#F2B030"/>
<path d="M743.894 217.733L736.03 213.194L736.356 211.275L744.22 215.814L743.894 217.733Z" fill="#F2B030"/>
<path d="M713.398 231.143L709.234 228.746L709.56 226.827L713.706 229.225L713.398 231.143Z" fill="#F2B030"/>
<path d="M723.129 236.761L715.282 232.24L715.591 230.321L723.455 234.843L723.129 236.761Z" fill="#F2B030"/>
<path d="M698.08 206.085L693.917 203.687L694.243 201.769L698.389 204.166L698.08 206.085Z" fill="#F2B030"/>
<path d="M707.812 211.703L699.948 207.181L700.274 205.263L708.138 209.785L707.812 211.703Z" fill="#F2B030"/>
<path d="M717.92 238.697L713.757 236.299L714.082 234.381L718.229 236.779L717.92 238.697Z" fill="#F2B030"/>
<path d="M727.653 244.316L719.806 239.777L720.114 237.858L727.978 242.397L727.653 244.316Z" fill="#F2B030"/>
<path d="M727.173 193.273L723.026 190.875L723.352 188.957L727.498 191.355L727.173 193.273Z" fill="#F2B030"/>
<path d="M720.902 189.659L716.738 187.261L717.064 185.343L721.227 187.741L720.902 189.659Z" fill="#F2B030"/>
<path d="M736.922 198.891L729.058 194.37L729.383 192.451L737.23 196.973L736.922 198.891Z" fill="#F2B030"/>
<path d="M699.931 192.349L696.179 190.191L696.504 188.272L700.256 190.431L699.931 192.349Z" fill="#F2B030"/>
<path d="M711.033 198.771L701.936 193.513L702.261 191.595L711.359 196.853L711.033 198.771Z" fill="#F2B030"/>
<path d="M722.153 205.178L713.038 199.919L713.364 198.001L722.461 203.259L722.153 205.178Z" fill="#F2B030"/>
<path d="M742.678 202.231L738.943 200.073L739.269 198.138L743.004 200.313L742.678 202.231Z" fill="#F2B030"/>
<path d="M753.798 208.638L744.683 203.379L745.008 201.461L754.123 206.719L753.798 208.638Z" fill="#F2B030"/>
<path d="M764.901 215.043L755.803 209.802L756.128 207.884L765.226 213.125L764.901 215.043Z" fill="#F2B030"/>
<path d="M703.855 204.492L694.757 199.234L695.082 197.315L704.18 202.574L703.855 204.492Z" fill="#F2B030"/>
<path d="M708.668 207.267L705.858 205.657L706.184 203.722L708.977 205.349L708.668 207.267Z" fill="#F2B030"/>
<path d="M713.466 210.042L710.673 208.432L710.998 206.514L713.791 208.124L713.466 210.042Z" fill="#F2B030"/>
<path d="M722.358 215.18L715.487 211.206L715.813 209.288L722.683 213.245L722.358 215.18Z" fill="#F2B030"/>
<path d="M732.33 206.119L729.537 204.509L729.863 202.591L732.655 204.201L732.33 206.119Z" fill="#F2B030"/>
<path d="M741.222 211.258L734.352 207.285L734.66 205.366L741.548 209.34L741.222 211.258Z" fill="#F2B030"/>
<path d="M743.089 212.337L736.219 208.364L736.544 206.445L743.415 210.419L743.089 212.337Z" fill="#F2B030"/>
<path d="M706.476 237.019L697.498 231.846L697.824 229.928L706.784 235.1L706.476 237.019Z" fill="#F2B030"/>
<path d="M712.472 240.496L708.326 238.098L708.635 236.18L712.798 238.56L712.472 240.496Z" fill="#F2B030"/>
<path d="M718.504 243.973L714.357 241.575L714.683 239.656L718.829 242.054L718.504 243.973Z" fill="#F2B030"/>
<path d="M728.252 249.591L720.388 245.052L720.713 243.134L728.577 247.673L728.252 249.591Z" fill="#F2B030"/>
<path d="M734.471 253.187L730.325 250.789L730.651 248.871L734.797 251.269L734.471 253.187Z" fill="#F2B030"/>
<path d="M744.221 258.805L736.356 254.284L736.682 252.365L744.546 256.887L744.221 258.805Z" fill="#F2B030"/>
<path d="M714.34 251.44L710.193 249.042L710.502 247.124L714.665 249.522L714.34 251.44Z" fill="#F2B030"/>
<path d="M724.072 257.059L716.225 252.52L716.55 250.602L724.397 255.141L724.072 257.059Z" fill="#F2B030"/>
<path d="M692.649 238.92L688.503 236.522L688.828 234.604L692.975 237.001L692.649 238.92Z" fill="#F2B030"/>
<path d="M698.697 242.397L694.533 239.999L694.859 238.081L699.005 240.479L698.697 242.397Z" fill="#F2B030"/>
<path d="M708.429 248.033L700.564 243.494L700.89 241.575L708.754 246.097L708.429 248.033Z" fill="#F2B030"/>
<path d="M700.496 238.509L696.744 236.351L697.07 234.433L700.805 236.591L700.496 238.509Z" fill="#F2B030"/>
<path d="M711.599 244.915L702.501 239.657L702.809 237.738L711.924 242.997L711.599 244.915Z" fill="#F2B030"/>
<path d="M722.701 251.338L713.604 246.079L713.929 244.161L723.027 249.402L722.701 251.338Z" fill="#F2B030"/>
<path d="M689.582 242.089L680.484 236.83L680.81 234.912L689.908 240.17L689.582 242.089Z" fill="#F2B030"/>
<path d="M694.397 244.846L691.587 243.236L691.912 241.317L694.705 242.927L694.397 244.846Z" fill="#F2B030"/>
<path d="M699.194 247.638L696.401 246.011L696.727 244.093L699.52 245.72L699.194 247.638Z" fill="#F2B030"/>
<path d="M708.086 252.759L701.216 248.786L701.541 246.867L708.412 250.841L708.086 252.759Z" fill="#F2B030"/>
<path d="M709.953 253.838L703.083 249.865L703.409 247.946L710.279 251.92L709.953 253.838Z" fill="#F2B030"/>
<path d="M693.694 224.703L690.901 223.093L691.21 221.175L694.02 222.785L693.694 224.703Z" fill="#F2B030"/>
<path d="M702.586 229.842L695.698 225.869L696.024 223.95L702.911 227.924L702.586 229.842Z" fill="#F2B030"/>
<path d="M711.667 235.083L704.797 231.11L705.105 229.191L711.993 233.165L711.667 235.083Z" fill="#F2B030"/>
<path d="M746.688 265.16L742.524 262.762L742.85 260.844L746.996 263.242L746.688 265.16Z" fill="#F2B030"/>
<path d="M756.419 270.795L748.572 266.256L748.881 264.338L756.745 268.877L756.419 270.795Z" fill="#F2B030"/>
<path d="M731.353 256.322L724.466 252.348L724.791 250.43L731.679 254.403L731.353 256.322Z" fill="#F2B030"/>
<path d="M740.434 261.563L733.563 257.589L733.872 255.671L740.759 259.645L740.434 261.563Z" fill="#F2B030"/>
<path d="M688.828 205.691L686.035 204.064L686.344 202.146L689.153 203.773L688.828 205.691Z" fill="#F2B030"/>
<path d="M697.721 210.813L690.833 206.839L691.159 204.921L698.046 208.895L697.721 210.813Z" fill="#F2B030"/>
<path d="M706.801 216.054L699.931 212.097L700.239 210.179L707.127 214.135L706.801 216.054Z" fill="#F2B030"/>
<path d="M844.074 286.005C843.44 286.005 842.789 285.817 842.155 285.44L786.54 253.342C784.278 252.04 782.805 248.717 783.268 245.96L786.831 224.755C787.071 223.316 787.825 222.203 788.87 221.706C789.847 221.244 790.995 221.346 792.091 221.98L847.706 254.078C849.968 255.38 851.441 258.703 850.978 261.46L847.415 282.665C847.175 284.104 846.421 285.217 845.376 285.714C844.965 285.902 844.536 286.005 844.091 286.005H844.074ZM790.155 222.203C789.812 222.203 789.504 222.271 789.196 222.408C788.373 222.802 787.791 223.693 787.585 224.875L784.021 246.079C783.61 248.546 784.912 251.509 786.917 252.657L842.532 284.755C843.406 285.251 844.279 285.337 845.016 284.995C845.839 284.601 846.421 283.71 846.627 282.511L850.19 261.306C850.602 258.84 849.299 255.877 847.295 254.729L791.68 222.631C791.166 222.34 790.635 222.186 790.138 222.186L790.155 222.203Z" fill="#F2B030"/>
<path d="M837.957 322.454C837.323 322.454 836.672 322.265 836.038 321.906L780.44 289.808C778.179 288.506 776.705 285.183 777.168 282.425L780.732 261.221C780.972 259.782 781.708 258.669 782.771 258.172C783.747 257.709 784.895 257.812 785.992 258.446L841.606 290.544C843.868 291.846 845.341 295.169 844.879 297.926L841.315 319.131C841.075 320.57 840.321 321.683 839.276 322.18C838.865 322.368 838.437 322.471 837.991 322.471L837.957 322.454ZM836.432 321.221C837.306 321.717 838.18 321.803 838.917 321.46C839.739 321.066 840.321 320.176 840.527 318.977L844.091 297.772C844.502 295.306 843.2 292.343 841.195 291.195L785.58 259.097C784.707 258.6 783.816 258.514 783.079 258.857C782.257 259.251 781.674 260.142 781.486 261.324L777.922 282.528C777.511 284.995 778.813 287.958 780.817 289.105L836.415 321.203L836.432 321.221Z" fill="#F2B030"/>
<g style="mix-blend-mode:lighten" opacity="0.5">
<path d="M791.542 251.064C792.519 251.629 793.41 251.424 793.736 250.533L800.212 232.822C800.949 230.801 803.981 232.634 804.615 235.477L808.607 253.308C808.899 254.609 809.807 255.911 810.835 256.493L811.794 257.042C812.719 257.573 813.559 257.418 813.919 256.648L815.238 253.856C816.06 252.126 818.785 253.753 819.521 256.425C819.864 257.658 820.721 258.84 821.68 259.388L822.52 259.868C823.53 260.45 824.421 260.21 824.73 259.268L825.929 255.569C826.614 253.479 829.647 255.226 830.332 258.086L834.324 274.581C834.633 275.882 835.541 277.15 836.569 277.715L791.525 251.03L791.542 251.064Z" fill="#F2B030"/>
</g>
<path d="M829.527 314.061C828.414 313.445 827.437 312.074 827.095 310.67L823.102 294.176C822.674 292.428 821.252 291.075 820.258 291.024C819.864 291.007 819.59 291.212 819.436 291.675L818.237 295.375C818.065 295.906 817.74 296.265 817.277 296.454C816.746 296.659 816.112 296.573 815.461 296.197L814.621 295.717C813.576 295.118 812.651 293.85 812.274 292.514C811.794 290.818 810.475 289.602 809.533 289.517C809.156 289.482 808.882 289.637 808.711 290.013L807.391 292.805C807.186 293.234 806.86 293.525 806.449 293.662C805.935 293.816 805.335 293.73 804.718 293.371L803.759 292.822C802.628 292.172 801.669 290.784 801.36 289.38L797.368 271.549C796.974 269.785 795.552 268.398 794.541 268.329C794.147 268.329 793.873 268.5 793.702 268.929L787.208 286.639C787.02 287.136 786.694 287.478 786.249 287.65C785.735 287.838 785.101 287.735 784.467 287.376L784.861 286.708C785.289 286.947 785.683 287.033 785.992 286.913C786.214 286.828 786.386 286.656 786.489 286.365L792.982 268.655C793.256 267.901 793.856 267.473 794.593 267.541C795.912 267.627 797.642 269.186 798.139 271.361L802.131 289.191C802.405 290.39 803.228 291.589 804.17 292.137L805.13 292.685C805.541 292.925 805.935 292.994 806.226 292.908C806.432 292.84 806.603 292.685 806.706 292.463L808.025 289.671C808.334 289.02 808.916 288.66 809.619 288.746C811.024 288.866 812.531 290.425 813.045 292.309C813.354 293.439 814.159 294.535 815.033 295.049L815.872 295.529C816.301 295.786 816.712 295.854 817.02 295.734C817.243 295.649 817.414 295.443 817.517 295.152L818.716 291.452C818.956 290.699 819.522 290.27 820.241 290.27H820.31C821.612 290.322 823.359 291.829 823.873 294.004L827.866 310.499C828.157 311.681 828.996 312.879 829.922 313.393L829.545 314.078L829.527 314.061Z" fill="#F2B030"/>
<path d="M807.22 204.15C806.415 204.15 805.575 203.911 804.787 203.465L761.302 178.373C758.613 176.831 757.122 173.08 757.961 170.048C758.39 168.507 759.332 167.376 760.6 166.845C761.851 166.332 763.256 166.469 764.575 167.239L808.059 192.332C810.749 193.891 812.24 197.625 811.4 200.656C810.972 202.198 810.03 203.328 808.762 203.859C808.265 204.065 807.751 204.168 807.22 204.168V204.15ZM762.159 167.325C761.731 167.325 761.302 167.411 760.908 167.565C759.863 167.993 759.075 168.952 758.732 170.237C757.979 172.96 759.315 176.3 761.714 177.687L805.198 202.78C806.312 203.414 807.477 203.551 808.488 203.123C809.533 202.695 810.321 201.735 810.664 200.451C811.417 197.727 810.081 194.387 807.682 193L764.198 167.907C763.53 167.513 762.827 167.325 762.159 167.325Z" fill="#F2B030"/>
<defs>
<radialGradient id="paint0_radial_646_4967" cx="0" cy="0" r="1" gradientUnits="userSpaceOnUse" gradientTransform="translate(1050.27 93.1941) rotate(-180) scale(752.736 752.507)">
<stop stop-color="#D8D8D8"/>
<stop offset="1" stop-color="#F2B030"/>
</radialGradient>
<linearGradient id="paint1_linear_646_4967" x1="873.92" y1="376.528" x2="495.65" y2="376.528" gradientUnits="userSpaceOnUse">
<stop stop-color="#444444"/>
<stop offset="0.17" stop-color="#484848"/>
<stop offset="0.37" stop-color="#575757"/>
<stop offset="0.58" stop-color="#6E6E6E"/>
<stop offset="0.81" stop-color="#8F8F8F"/>
<stop offset="1" stop-color="#B2B2B2"/>
</linearGradient>
<linearGradient id="paint2_linear_646_4967" x1="1041.96" y1="366.2" x2="484.565" y2="366.2" gradientUnits="userSpaceOnUse">
<stop stop-color="#EAEAEA"/>
<stop offset="0.57" stop-color="#EEEEEE"/>
<stop offset="1" stop-color="#F7F7F7"/>
</linearGradient>
<linearGradient id="paint3_linear_646_4967" x1="1019.38" y1="293.302" x2="641.112" y2="293.302" gradientUnits="userSpaceOnUse">
<stop stop-color="#5761D7"/>
<stop offset="0.18" stop-color="#5B65D8"/>
<stop offset="0.39" stop-color="#6A72DE"/>
<stop offset="0.61" stop-color="#8188E8"/>
<stop offset="0.85" stop-color="#A2A6F5"/>
<stop offset="1" stop-color="#BCBEFF"/>
</linearGradient>
<linearGradient id="paint4_linear_646_4967" x1="892.269" y1="282.973" x2="513.794" y2="282.973" gradientUnits="userSpaceOnUse">
<stop stop-color="#C0BFF6"/>
<stop offset="0.29" stop-color="#C4C3F6"/>
<stop offset="0.64" stop-color="#D2D2F9"/>
<stop offset="1" stop-color="#E9E9FD"/>
</linearGradient>
</defs>
</svg>
