<svg width="15" height="15" viewBox="0 0 15 15" fill="none" xmlns="http://www.w3.org/2000/svg">
<path d="M8.95 11.9188C8.95 12.3 8.69998 12.8 8.38123 12.9938L7.5 13.5625C6.68125 14.0688 5.54375 13.5 5.54375 12.4875V9.14375C5.54375 8.7 5.29375 8.13126 5.0375 7.81876L2.63748 5.29375C2.31873 4.975 2.06875 4.41251 2.06875 4.03126V2.58125C2.06875 1.825 2.63751 1.25626 3.33126 1.25626H11.6687C12.3625 1.25626 12.9313 1.825 12.9313 2.51875V3.90625C12.9313 4.4125 12.6125 5.04375 12.3 5.35625" stroke="currentColor" stroke-miterlimit="10" stroke-linecap="round" stroke-linejoin="round"/>
<path d="M10.0438 10.325C11.1483 10.325 12.0438 9.42957 12.0438 8.325C12.0438 7.22044 11.1483 6.325 10.0438 6.325C8.93919 6.325 8.04375 7.22044 8.04375 8.325C8.04375 9.42957 8.93919 10.325 10.0438 10.325Z" stroke="currentColor" stroke-linecap="round" stroke-linejoin="round"/>
<path d="M12.4187 10.7L11.7937 10.075" stroke="currentColor" stroke-linecap="round" stroke-linejoin="round"/>
</svg>
