<svg width="19" height="19" viewBox="0 0 19 19" fill="none" xmlns="http://www.w3.org/2000/svg">
<path d="M15.0417 11.084C15.9125 11.084 16.625 10.3715 16.625 9.50065C16.625 8.62982 15.9125 7.91732 15.0417 7.91732C14.1708 7.91732 13.4583 8.62982 13.4583 9.50065C13.4583 10.3715 14.1708 11.084 15.0417 11.084Z" stroke="currentColor" stroke-width="1.5"/>
<path d="M3.95817 11.084C4.829 11.084 5.5415 10.3715 5.5415 9.50065C5.5415 8.62982 4.829 7.91732 3.95817 7.91732C3.08734 7.91732 2.37484 8.62982 2.37484 9.50065C2.37484 10.3715 3.08734 11.084 3.95817 11.084Z" stroke="currentColor" stroke-width="1.5"/>
<path d="M9.50016 11.084C10.371 11.084 11.0835 10.3715 11.0835 9.50065C11.0835 8.62982 10.371 7.91732 9.50016 7.91732C8.62933 7.91732 7.91683 8.62982 7.91683 9.50065C7.91683 10.3715 8.62933 11.084 9.50016 11.084Z" stroke="currentColor" stroke-width="1.5"/>
</svg>
