<svg width="120" height="120" viewBox="0 0 120 120" fill="none" xmlns="http://www.w3.org/2000/svg">
<path d="M45 50C50.5228 50 55 45.5228 55 40C55 34.4772 50.5228 30 45 30C39.4772 30 35 34.4772 35 40C35 45.5228 39.4772 50 45 50Z" stroke="currentColor" stroke-width="3" stroke-linecap="round" stroke-linejoin="round"/>
<path d="M65 10H45C20 10 10 20 10 45V75C10 100 20 110 45 110H75C100 110 110 100 110 75V50" stroke="currentColor" stroke-width="3" stroke-linecap="round" stroke-linejoin="round"/>
<path d="M78.75 25H106.25" stroke="currentColor" stroke-width="3" stroke-linecap="round"/>
<path d="M92.5 38.75V11.25" stroke="currentColor" stroke-width="3" stroke-linecap="round"/>
<path d="M13.3496 94.7508L37.9996 78.2008C41.9496 75.5508 47.6496 75.8508 51.1996 78.9008L52.8496 80.3508C56.7496 83.7008 63.0496 83.7008 66.9496 80.3508L87.7496 62.5008C91.6496 59.1508 97.9496 59.1508 101.85 62.5008L110 69.5008" stroke="currentColor" stroke-width="3" stroke-linecap="round" stroke-linejoin="round"/>
</svg>
