<svg width="50" height="50" viewBox="0 0 50 50" fill="none" xmlns="http://www.w3.org/2000/svg">
<g clip-path="url(#clip0_884_3925)">
<path d="M25.1437 39.3208C16.7625 39.3208 13.0187 35.1979 13.0187 32.1042C13.0187 30.5104 14.1875 29.4042 15.7958 29.4042C19.3854 29.4042 18.4479 34.5646 25.1437 34.5646C28.5625 34.5646 30.4562 32.7 30.4562 30.7917C30.4562 29.6437 29.8958 28.375 27.6354 27.8146L20.1854 25.95C14.1854 24.4417 13.0958 21.1875 13.0958 18.1354C13.0958 11.7875 19.0562 9.40417 24.6562 9.40417C29.8041 9.40417 35.8917 12.2646 35.8917 16.0687C35.8917 17.7021 34.4583 18.6521 32.8646 18.6521C29.8041 18.6521 30.3687 14.4083 24.1896 14.4083C21.1292 14.4083 19.4146 15.7917 19.4146 17.7771C19.4146 19.7625 21.8167 20.3979 23.9083 20.875L29.4021 22.0979C35.425 23.45 36.9521 26.9854 36.9521 30.3146C36.9521 35.4729 32.9896 39.3229 25.0312 39.3229L25.1437 39.3208ZM48.1229 29.1521L48.0625 29.4333L47.9708 28.9333C48.0021 29.0271 48.0625 29.0875 48.0937 29.1833C48.3437 27.7771 48.4708 26.3438 48.4708 24.9083C48.4708 21.7229 47.8437 18.6333 46.6 15.7C45.4146 12.8917 43.6937 10.3625 41.5437 8.20833C39.3583 6.05625 36.8625 4.34167 34.0541 3.15417C31.3083 1.83958 28.2187 1.21667 25.0375 1.21667C23.5375 1.21667 22.0292 1.3625 20.5729 1.64167L20.8208 1.76667L20.3229 1.69792L20.5708 1.64583C18.5625 0.570833 16.3104 0 14.0229 0C10.2958 0 6.79373 1.45417 4.15623 4.09792C1.51873 6.73958 0.0666504 10.2562 0.0666504 13.9917C0.0666504 16.3729 0.674984 18.7104 1.82498 20.7792L1.86665 20.5208L1.95207 21.0187L1.82707 20.7792C1.58957 22.1229 1.46873 23.4854 1.46873 24.8521C1.46873 28.0396 2.09373 31.1375 3.3104 34.0521C4.49373 36.8896 6.18123 39.4188 8.36665 41.5708C10.5208 43.7583 13.0479 45.4396 15.8562 46.6583C18.7604 47.9083 21.85 48.5292 25.0312 48.5292C26.4042 48.5292 27.8104 48.4042 29.15 48.1562L28.9021 48.0271L29.4021 48.1229L29.1208 48.1854C31.2083 49.3708 33.55 50 35.9833 50C39.6979 50 43.1896 48.5625 45.8437 45.9104C48.4666 43.2875 49.9312 39.7625 49.9312 36.0167C49.9312 33.6458 49.3083 31.3042 48.1542 29.2125" fill="#00AFF0"/>
</g>
<defs>
<clipPath id="clip0_884_3925">
<rect width="50" height="50" fill="#00AFF0"/>
</clipPath>
</defs>
</svg>
