<svg width="20" height="20" viewBox="0 0 20 20" fill="none" xmlns="http://www.w3.org/2000/svg">
<path d="M9.99984 17.0837H5.83317C3.33317 17.0837 1.6665 15.8337 1.6665 12.917V7.08366C1.6665 4.16699 3.33317 2.91699 5.83317 2.91699H14.1665C16.6665 2.91699 18.3332 4.16699 18.3332 7.08366V9.58366" stroke="currentColor" stroke-width="1.5" stroke-miterlimit="10" stroke-linecap="round" stroke-linejoin="round"/>
<path d="M14.1667 7.5L11.5583 9.58333C10.7 10.2667 9.29166 10.2667 8.43333 9.58333L5.83333 7.5" stroke="currentColor" stroke-width="1.5" stroke-miterlimit="10" stroke-linecap="round" stroke-linejoin="round"/>
<path d="M16.0083 12.3083L13.0584 15.2583C12.9417 15.375 12.8333 15.5917 12.8083 15.75L12.65 16.875C12.5917 17.2833 12.875 17.5667 13.2833 17.5084L14.4083 17.35C14.5667 17.325 14.7917 17.2167 14.9 17.1L17.85 14.15C18.3584 13.6417 18.6 13.05 17.85 12.3C17.1084 11.5584 16.5167 11.8 16.0083 12.3083Z" stroke="currentColor" stroke-width="1.5" stroke-miterlimit="10" stroke-linecap="round" stroke-linejoin="round"/>
<path d="M15.5833 12.7333C15.8333 13.6333 16.5333 14.3333 17.4333 14.5833" stroke="currentColor" stroke-width="1.5" stroke-miterlimit="10" stroke-linecap="round" stroke-linejoin="round"/>
</svg>
