<svg width="7" height="7" viewBox="0 0 7 7" fill="none" xmlns="http://www.w3.org/2000/svg">
<path d="M7 4.86625L6.49007 5.68274L4.4851 4.59409C4.34603 4.51426 4.22241 4.43442 4.11424 4.35459C4.00607 4.27475 3.90949 4.17315 3.8245 4.04977C3.94812 4.28927 4.00993 4.55417 4.00993 4.84448V7H2.99007V4.85537C2.99007 4.71021 2.99779 4.57595 3.01324 4.45257C3.03642 4.32919 3.07892 4.20943 3.14073 4.09331C3.05574 4.19492 2.96302 4.28564 2.86258 4.36547C2.76214 4.44531 2.64625 4.52151 2.5149 4.59409L0.521523 5.67185L0.0115894 4.85537L2.00497 3.76672C2.29857 3.59979 2.59216 3.5127 2.88576 3.50544C2.73124 3.49093 2.58057 3.46553 2.43377 3.42924C2.2947 3.38569 2.15177 3.32037 2.00497 3.23328L0 2.13375L0.509934 1.31726L2.5149 2.40591C2.65397 2.48574 2.77759 2.56921 2.88576 2.6563C2.99393 2.74339 3.09051 2.84863 3.1755 2.97201C3.05188 2.71799 2.99007 2.44583 2.99007 2.15552V0H4.00993V2.14463C4.00993 2.28979 3.99834 2.42768 3.97517 2.55832C3.95971 2.6817 3.92108 2.80145 3.85927 2.91757C3.94426 2.81597 4.03698 2.72525 4.13742 2.64541C4.23786 2.56558 4.35375 2.48574 4.4851 2.40591L6.47848 1.32815L6.98841 2.14463L4.99503 3.23328C4.86369 3.31311 4.73234 3.37481 4.60099 3.41835C4.46965 3.4619 4.33057 3.49093 4.18377 3.50544C4.33057 3.51996 4.46965 3.54899 4.60099 3.59254C4.73234 3.62882 4.86369 3.68688 4.99503 3.76672L7 4.86625Z" fill="currentColor"/>
</svg>
