<svg width="50" height="50" viewBox="0 0 50 50" fill="none" xmlns="http://www.w3.org/2000/svg">
<path fill-rule="evenodd" clip-rule="evenodd" d="M3.43724 24.0881C16.859 18.2405 25.8089 14.3854 30.287 12.5228C43.073 7.20464 45.7298 6.28083 47.4615 6.25033C47.8423 6.24362 48.6939 6.33801 49.2455 6.78561C49.7113 7.16355 49.8395 7.67411 49.9008 8.03244C49.9621 8.39077 50.0385 9.20707 49.9778 9.8449C49.2849 17.125 46.2868 34.7918 44.7616 42.9456C44.1162 46.3958 42.8454 47.5527 41.6152 47.6659C38.9415 47.9119 36.9112 45.8989 34.3217 44.2014C30.2695 41.5452 27.9803 39.8917 24.047 37.2997C19.5013 34.3042 22.4481 32.6578 25.0386 29.9671C25.7166 29.263 37.4968 18.548 37.7248 17.576C37.7533 17.4544 37.7798 17.0013 37.5106 16.762C37.2414 16.5227 36.844 16.6045 36.5573 16.6696C36.1509 16.7619 29.6775 21.0405 17.1372 29.5056C15.2997 30.7673 13.6354 31.3821 12.1442 31.3499C10.5004 31.3144 7.33819 30.4204 4.98744 29.6563C2.10415 28.719 -0.187432 28.2235 0.012113 26.6318C0.116049 25.8027 1.25776 24.9548 3.43724 24.0881Z" fill="#2AABEE"/>
</svg>
