<svg width="50" height="50" viewBox="0 0 50 50" fill="none" xmlns="http://www.w3.org/2000/svg">
<path d="M48.8668 12.0505C48.3437 13.7217 47.5787 15.3073 46.5959 16.7567L46.6355 16.6942C45.7022 18.2498 44.5876 20.047 43.2918 22.0859C42.1807 23.6956 41.5925 24.5289 41.5272 24.5859C41.2302 24.9577 41.0381 25.4023 40.9709 25.8734L40.9688 25.888C41.0219 26.3124 41.219 26.7059 41.5272 27.0025L42.3605 27.9317C46.8188 32.5136 49.3265 35.672 49.8834 37.4067C49.989 37.6917 50.023 37.9982 49.9823 38.2994C49.9416 38.6005 49.8275 38.8871 49.6501 39.1338L49.6543 39.1275C49.4445 39.3439 49.1889 39.5103 48.9061 39.6145C48.6234 39.7187 48.3209 39.7581 48.0209 39.7296H48.0293H42.5376C41.8355 39.7296 41.1897 39.4838 40.6834 39.0755L40.6897 39.0796C39.9669 38.487 39.3033 37.8256 38.7084 37.1046L38.6897 37.0796C37.73 35.9949 36.8786 35.0817 36.1355 34.34C33.6605 31.9873 31.8341 30.8109 30.6563 30.8109C30.2762 30.7768 29.8961 30.8763 29.5813 31.0921L29.5876 31.088C29.4524 31.2575 29.3531 31.4528 29.2958 31.662C29.2385 31.8712 29.2243 32.0898 29.2543 32.3046V32.2963C29.1733 33.2684 29.1469 34.2442 29.1751 35.2192V35.1838V37.5984C29.2343 37.8868 29.214 38.1859 29.1164 38.4636C29.0187 38.7414 28.8475 38.9874 28.6209 39.1755L28.6188 39.1775C27.5638 39.6542 26.4023 39.846 25.2501 39.7338L25.2772 39.7359C22.1234 39.6818 19.0441 38.7684 16.3709 37.0942L16.4438 37.1359C13.3613 35.2775 10.7192 32.7718 8.7001 29.7921L8.64385 29.7046C6.68393 27.091 4.96112 24.3078 3.49593 21.388L3.3501 21.0671C2.37376 19.1764 1.51586 17.2268 0.781348 15.2296L0.656348 14.8442C0.315796 13.8074 0.099014 12.734 0.0105143 11.6463L0.00634766 11.5942C0.00634766 10.5414 0.625792 10.015 1.86468 10.015H7.34385C7.89778 9.97165 8.44766 10.1391 8.88343 10.4838L8.87926 10.4796C9.29593 10.9359 9.60426 11.4963 9.75635 12.1213L9.7626 12.1463C10.6678 14.7386 11.7732 17.2566 13.0688 19.6775L12.9293 19.3921C13.8657 21.2943 14.999 23.093 16.3105 24.7588L16.2626 24.6942C17.3737 26.0581 18.2404 26.74 18.8626 26.74L18.9293 26.7421C19.0758 26.7423 19.2197 26.7039 19.3466 26.6308C19.4735 26.5576 19.5789 26.4523 19.6522 26.3255L19.6543 26.3213C19.8537 25.7991 19.9328 25.2387 19.8855 24.6817V24.6942V16.613C19.8466 15.6967 19.6197 14.7982 19.2188 13.9734L19.2355 14.013C18.9925 13.4887 18.6769 13.0013 18.298 12.565L18.3043 12.5734C17.9549 12.2246 17.7277 11.7723 17.6563 11.2838L17.6543 11.2713C17.6543 10.9171 17.8168 10.5984 18.0709 10.39L18.073 10.388C18.3346 10.1484 18.6767 10.016 19.0313 10.0171H27.6855C27.9027 9.99177 28.1229 10.0208 28.3261 10.1015C28.5294 10.1822 28.7094 10.3121 28.8501 10.4796L28.8522 10.4817C29.1153 10.9679 29.2305 11.5205 29.1834 12.0713V12.0609V22.838C29.1502 23.263 29.2492 23.688 29.4668 24.0546L29.4626 24.0463C29.5389 24.1603 29.6421 24.2538 29.7631 24.3185C29.8841 24.3831 30.0191 24.417 30.1563 24.4171C30.5077 24.3943 30.8486 24.2778 31.1397 24.0796L31.1334 24.0838C31.7001 23.6942 32.1876 23.2505 32.6105 22.7484L32.6188 22.738C33.9059 21.2817 35.0599 19.7129 36.0668 18.0505L36.148 17.9046C36.8647 16.7171 37.6397 15.2546 38.3418 13.7525L38.4709 13.4463L39.4001 11.588C39.5637 11.1075 39.8793 10.6933 40.2991 10.408C40.7189 10.1227 41.2202 9.98188 41.7272 10.0067H41.7209H47.2022C48.6827 10.0067 49.2383 10.688 48.8688 12.0505H48.8668Z" fill="#0077FF"/>
</svg>
