<svg width="50" height="50" viewBox="0 0 50 50" fill="none" xmlns="http://www.w3.org/2000/svg">
<g clip-path="url(#clip0_884_3922)">
<path fill-rule="evenodd" clip-rule="evenodd" d="M25.5356 39.3819H25.5415C33.7066 39.3819 40.3519 32.7386 40.3553 24.5729C40.3568 20.6159 38.8173 16.8951 36.0204 14.096C33.2236 11.2969 29.5042 9.7544 25.5475 9.75283C17.3763 9.75283 10.7308 16.3958 10.7276 24.5609C10.7265 27.3591 11.5096 30.0843 12.9924 32.4422L13.3447 33.0023L11.8482 38.4671L17.4549 36.9968L17.9958 37.3178C20.2702 38.6671 22.8774 39.3809 25.5356 39.3819ZM30.6241 26.8424C31.0324 26.9909 33.2219 28.068 33.6672 28.2908C33.754 28.3342 33.8352 28.3734 33.9104 28.4098C34.2213 28.5599 34.4312 28.6613 34.5207 28.8108C34.6321 28.9965 34.6321 29.8879 34.2611 30.9278C33.8899 31.9677 32.1107 32.9169 31.2551 33.0447C30.4878 33.1594 29.5169 33.2071 28.4501 32.8684C27.8033 32.6631 26.9739 32.3893 25.9114 31.9306C21.7375 30.1288 18.9165 26.0852 18.3822 25.3193C18.3446 25.2655 18.3184 25.2278 18.3037 25.2083L18.2999 25.2032C18.0634 24.8876 16.4854 22.782 16.4854 20.6029C16.4854 18.5521 17.4931 17.4772 17.9569 16.9824C17.9886 16.9486 18.0178 16.9174 18.044 16.8889C18.4523 16.4433 18.9346 16.3318 19.2316 16.3318C19.5284 16.3318 19.8256 16.3346 20.0851 16.3475C20.1171 16.3491 20.1503 16.3489 20.1847 16.3487C20.4443 16.3471 20.7679 16.3452 21.087 17.1117C21.2096 17.4062 21.389 17.8427 21.5782 18.3031C21.9616 19.2362 22.3855 20.268 22.4601 20.4172C22.5714 20.64 22.6456 20.9001 22.4972 21.1972C22.475 21.2416 22.4545 21.2835 22.4349 21.3235C22.3232 21.5514 22.2413 21.7188 22.0519 21.9399C21.9777 22.0266 21.9009 22.12 21.8242 22.2134C21.6708 22.4002 21.5174 22.587 21.3839 22.7198C21.161 22.9418 20.9288 23.1827 21.1886 23.6284C21.4484 24.0741 22.3422 25.5321 23.666 26.7125C25.0894 27.9818 26.3265 28.5181 26.9533 28.7899C27.0756 28.8429 27.1746 28.8858 27.2473 28.9222C27.6926 29.1451 27.9524 29.1079 28.2121 28.8108C28.4719 28.5137 29.3253 27.5109 29.6223 27.0652C29.9192 26.6195 30.2159 26.6938 30.6241 26.8424Z" fill="#25D366"/>
<path fill-rule="evenodd" clip-rule="evenodd" d="M25 50C38.8071 50 50 38.8071 50 25C50 11.1929 38.8071 0 25 0C11.1929 0 0 11.1929 0 25C0 38.8071 11.1929 50 25 50ZM25.5414 6.74365C30.3092 6.74561 34.7842 8.60117 38.1491 11.9689C41.5143 15.3367 43.3663 19.8132 43.3645 24.574C43.3605 34.3978 35.3645 42.3912 25.5416 42.3912H25.5343C22.5513 42.3899 19.6203 41.642 17.0171 40.2226L7.56887 42.7001L10.0974 33.4672C8.53772 30.7654 7.71711 27.7 7.71838 24.5598C7.72229 14.7359 15.7177 6.74365 25.5414 6.74365Z" fill="#25D366"/>
</g>
<defs>
<clipPath id="clip0_884_3922">
<rect width="50" height="50" fill="#25D366"/>
</clipPath>
</defs>
</svg>
